<svg width="48" height="48" viewBox="0 0 48 48" fill="none" xmlns="http://www.w3.org/2000/svg">
<g clip-path="url(#clip0_48_2)">
<rect width="48" height="48" rx="24" fill="#C9FF47"/>
<path d="M6.73714 39.1737C6.47657 39.1737 6.24495 39.1158 6.04229 39C5.83962 38.9131 5.73829 38.7829 5.73829 38.6091C5.73829 38.1749 6.10019 37.8853 6.824 37.7406C7.92419 37.509 8.72038 37.1905 9.21257 36.7851C9.70476 36.3798 9.95086 35.7139 9.95086 34.7874V15.0709C9.95086 14.1154 9.74819 13.435 9.34286 13.0297C8.93752 12.6244 8.17029 12.3059 7.04114 12.0743C6.31733 11.9295 5.95543 11.6255 5.95543 11.1623C5.95543 10.9886 6.05676 10.8583 6.25943 10.7714C6.4621 10.6556 6.69371 10.5977 6.95429 10.5977C7.64914 10.5977 8.32952 10.6122 8.99543 10.6411C9.66133 10.6701 10.2983 10.699 10.9063 10.728C11.5432 10.757 12.1802 10.7714 12.8171 10.7714C13.4251 10.7714 14.0331 10.757 14.6411 10.728C15.2781 10.699 15.9295 10.6701 16.5954 10.6411C17.2613 10.6122 17.9417 10.5977 18.6366 10.5977C18.9261 10.5977 19.1577 10.6556 19.3314 10.7714C19.5051 10.8583 19.592 11.003 19.592 11.2057C19.592 11.4373 19.4907 11.6255 19.288 11.7703C19.1143 11.8861 18.8537 11.9874 18.5063 12.0743C17.3482 12.3638 16.5665 12.7112 16.1611 13.1166C15.7558 13.5219 15.5531 14.1878 15.5531 15.1143V34.744C15.5531 35.6415 15.7848 36.293 16.248 36.6983C16.7402 37.1036 17.5364 37.451 18.6366 37.7406C19.013 37.8274 19.288 37.9288 19.4617 38.0446C19.6644 38.1604 19.7657 38.3341 19.7657 38.5657C19.7657 38.7684 19.6789 38.9131 19.5051 39C19.3314 39.0869 19.0998 39.1303 18.8103 39.1303C18.1154 39.1303 17.4206 39.1158 16.7257 39.0869C16.0309 39.0579 15.3505 39.029 14.6846 39C14.0476 38.971 13.4251 38.9566 12.8171 38.9566C12.1802 38.9566 11.5288 38.971 10.8629 39C10.197 39.029 9.51657 39.0579 8.82171 39.0869C8.12686 39.1448 7.432 39.1737 6.73714 39.1737ZM22.3039 39.1303C22.0723 39.1303 21.8696 39.0869 21.6959 39C21.5222 38.8842 21.4353 38.7394 21.4353 38.5657C21.4353 38.3341 21.5077 38.1604 21.6525 38.0446C21.8262 37.9288 22.0433 37.8419 22.3039 37.784C23.0567 37.5524 23.5489 37.3208 23.7805 37.0891C24.0411 36.8575 24.1713 36.4811 24.1713 35.96V23.6697C23.8818 23.6697 23.5489 23.6697 23.1725 23.6697C22.7961 23.6408 22.3763 23.6118 21.9131 23.5829C21.7683 23.5539 21.6235 23.4091 21.4788 23.1486C21.363 22.888 21.3051 22.6564 21.3051 22.4537C21.3051 22.3669 21.3485 22.2945 21.4353 22.2366C21.5222 22.1787 21.5946 22.1352 21.6525 22.1063C22.0868 21.9036 22.4921 21.7154 22.8685 21.5417C23.2738 21.368 23.7081 21.1798 24.1713 20.9771C24.2292 18.5741 24.6056 16.5619 25.3005 14.9406C26.0243 13.3192 26.9218 12.0309 27.9931 11.0754C29.0643 10.091 30.1934 9.39619 31.3805 8.99086C32.5965 8.55657 33.7256 8.33943 34.7679 8.33943C36.6209 8.33943 37.9671 8.61448 38.8068 9.16457C39.6753 9.68571 40.1096 10.453 40.1096 11.4663C40.1096 12.1032 39.9649 12.6099 39.6753 12.9863C39.3858 13.3337 38.995 13.5074 38.5028 13.5074C38.2422 13.5074 37.9816 13.4061 37.7211 13.2034C37.4894 12.9718 37.2289 12.6823 36.9393 12.3349C36.4761 11.8716 35.926 11.4084 35.2891 10.9451C34.6811 10.4819 33.8993 10.2503 32.9439 10.2503C31.7279 10.2503 30.758 10.7859 30.0342 11.8571C29.3393 12.9284 28.9919 14.5931 28.9919 16.8514V20.5429C28.9919 20.7455 29.0498 20.8903 29.1656 20.9771C29.2814 21.035 29.4262 21.064 29.5999 21.064H34.6811C34.8837 21.064 35.043 21.1364 35.1588 21.2811C35.2746 21.397 35.3325 21.5417 35.3325 21.7154C35.3325 21.947 35.3035 22.2076 35.2456 22.4971C35.1877 22.7577 35.1009 22.9749 34.9851 23.1486C34.8692 23.3802 34.7534 23.496 34.6376 23.496H30.2948C29.7736 23.496 29.4262 23.5684 29.2525 23.7131C29.0788 23.829 28.9919 24.0461 28.9919 24.3646V35.4823C28.9919 36.1771 29.1656 36.6838 29.5131 37.0023C29.8605 37.2918 30.6277 37.5379 31.8148 37.7406C32.4228 37.8564 32.7268 38.117 32.7268 38.5223C32.7268 38.696 32.6544 38.8408 32.5096 38.9566C32.3649 39.0724 32.1767 39.1303 31.9451 39.1303C31.0765 39.1303 30.1645 39.0869 29.2091 39C28.2536 38.9421 27.3995 38.9131 26.6468 38.9131C26.1546 38.9131 25.6913 38.9276 25.2571 38.9566C24.8228 38.9855 24.3595 39.0145 23.8673 39.0434C23.4041 39.1013 22.883 39.1303 22.3039 39.1303ZM40.2382 40.0857C39.3986 40.0857 38.6603 39.7672 38.0234 39.1303C37.4154 38.5223 37.1114 37.7985 37.1114 36.9589C37.1114 36.0613 37.4154 35.3086 38.0234 34.7006C38.6603 34.0636 39.3986 33.7451 40.2382 33.7451C41.1357 33.7451 41.8885 34.0636 42.4965 34.7006C43.1334 35.3086 43.4519 36.0613 43.4519 36.9589C43.4519 37.7985 43.1334 38.5223 42.4965 39.1303C41.8885 39.7672 41.1357 40.0857 40.2382 40.0857Z" fill="black"/>
</g>
<defs>
<clipPath id="clip0_48_2">
<rect width="48" height="48" rx="24" fill="white"/>
</clipPath>
</defs>
</svg>
