<svg width="48" height="48" viewBox="0 0 48 48" fill="none" xmlns="http://www.w3.org/2000/svg">
<g clip-path="url(#clip0_109_7)">
<rect width="48" height="48" rx="8" fill="#B6DBFF"/>
<path d="M24 -1L24.8541 6.70237L26.5087 -0.868525L26.553 6.88093L28.9899 -0.475542L28.2239 7.23609L31.4164 0.174644L29.8486 7.76397L33.7617 1.07491L31.4091 8.45877L36 2.21539L32.8885 9.3129L38.1068 3.58359L34.2705 10.317L40.0591 5.16452L35.54 11.46L41.8355 6.94086L36.683 12.7295L43.4164 8.89315L37.6871 14.1115L44.7846 11L38.5412 15.5909L45.9251 13.2383L39.236 17.1514L46.8254 15.5836L39.7639 18.7761L47.4755 18.0101L40.1191 20.447L47.8685 20.4913L40.2976 22.1459L48 23L40.2976 23.8541L47.8685 25.5087L40.1191 25.553L47.4755 27.9899L39.7639 27.2239L46.8254 30.4164L39.236 28.8486L45.9251 32.7617L38.5412 30.4091L44.7846 35L37.6871 31.8885L43.4164 37.1068L36.683 33.2705L41.8355 39.0591L35.54 34.54L40.0591 40.8355L34.2705 35.683L38.1068 42.4164L32.8885 36.6871L36 43.7846L31.4091 37.5412L33.7617 44.9251L29.8486 38.236L31.4164 45.8254L28.2239 38.7639L28.9899 46.4755L26.553 39.1191L26.5087 46.8685L24.8541 39.2976L24 47L23.1459 39.2976L21.4913 46.8685L21.447 39.1191L19.0101 46.4755L19.7761 38.7639L16.5836 45.8254L18.1514 38.236L14.2383 44.9251L16.5909 37.5412L12 43.7846L15.1115 36.6871L9.89315 42.4164L13.7295 35.683L7.94086 40.8355L12.46 34.54L6.16452 39.0591L11.317 33.2705L4.58359 37.1068L10.3129 31.8885L3.21539 35L9.45877 30.4091L2.07491 32.7617L8.76397 28.8486L1.17464 30.4164L8.23609 27.2239L0.524458 27.9899L7.88093 25.553L0.131475 25.5087L7.70237 23.8541L0 23L7.70237 22.1459L0.131475 20.4913L7.88093 20.447L0.524458 18.0101L8.23609 18.7761L1.17464 15.5836L8.76397 17.1514L2.07491 13.2383L9.45877 15.5909L3.21539 11L10.3129 14.1115L4.58359 8.89315L11.317 12.7295L6.16452 6.94086L12.46 11.46L7.94086 5.16452L13.7295 10.317L9.89315 3.58359L15.1115 9.3129L12 2.21539L16.5909 8.45877L14.2383 1.07491L18.1514 7.76397L16.5836 0.174644L19.7761 7.23609L19.0101 -0.475542L21.447 6.88093L21.4913 -0.868525L23.1459 6.70237L24 -1Z" fill="#D4F6F9"/>
<mask id="path-3-outside-1_109_7" maskUnits="userSpaceOnUse" x="5" y="7" width="39" height="34" fill="black">
<rect fill="white" x="5" y="7" width="39" height="34"/>
<path d="M6.73714 39.1737C6.47657 39.1737 6.24495 39.1158 6.04229 39C5.83962 38.9131 5.73829 38.7829 5.73829 38.6091C5.73829 38.1749 6.10019 37.8853 6.824 37.7406C7.92419 37.509 8.72038 37.1905 9.21257 36.7851C9.70476 36.3798 9.95086 35.7139 9.95086 34.7874V15.0709C9.95086 14.1154 9.74819 13.435 9.34286 13.0297C8.93752 12.6244 8.17029 12.3059 7.04114 12.0743C6.31733 11.9295 5.95543 11.6255 5.95543 11.1623C5.95543 10.9886 6.05676 10.8583 6.25943 10.7714C6.4621 10.6556 6.69371 10.5977 6.95429 10.5977C7.64914 10.5977 8.32952 10.6122 8.99543 10.6411C9.66133 10.6701 10.2983 10.699 10.9063 10.728C11.5432 10.757 12.1802 10.7714 12.8171 10.7714C13.4251 10.7714 14.0331 10.757 14.6411 10.728C15.2781 10.699 15.9295 10.6701 16.5954 10.6411C17.2613 10.6122 17.9417 10.5977 18.6366 10.5977C18.9261 10.5977 19.1577 10.6556 19.3314 10.7714C19.5051 10.8583 19.592 11.003 19.592 11.2057C19.592 11.4373 19.4907 11.6255 19.288 11.7703C19.1143 11.8861 18.8537 11.9874 18.5063 12.0743C17.3482 12.3638 16.5665 12.7112 16.1611 13.1166C15.7558 13.5219 15.5531 14.1878 15.5531 15.1143V34.744C15.5531 35.6415 15.7848 36.293 16.248 36.6983C16.7402 37.1036 17.5364 37.451 18.6366 37.7406C19.013 37.8274 19.288 37.9288 19.4617 38.0446C19.6644 38.1604 19.7657 38.3341 19.7657 38.5657C19.7657 38.7684 19.6789 38.9131 19.5051 39C19.3314 39.0869 19.0998 39.1303 18.8103 39.1303C18.1154 39.1303 17.4206 39.1158 16.7257 39.0869C16.0309 39.0579 15.3505 39.029 14.6846 39C14.0476 38.971 13.4251 38.9566 12.8171 38.9566C12.1802 38.9566 11.5288 38.971 10.8629 39C10.197 39.029 9.51657 39.0579 8.82171 39.0869C8.12686 39.1448 7.432 39.1737 6.73714 39.1737ZM22.3039 39.1303C22.0723 39.1303 21.8696 39.0869 21.6959 39C21.5222 38.8842 21.4353 38.7394 21.4353 38.5657C21.4353 38.3341 21.5077 38.1604 21.6525 38.0446C21.8262 37.9288 22.0433 37.8419 22.3039 37.784C23.0567 37.5524 23.5489 37.3208 23.7805 37.0891C24.0411 36.8575 24.1713 36.4811 24.1713 35.96V23.6697C23.8818 23.6697 23.5489 23.6697 23.1725 23.6697C22.7961 23.6408 22.3763 23.6118 21.9131 23.5829C21.7683 23.5539 21.6235 23.4091 21.4788 23.1486C21.363 22.888 21.3051 22.6564 21.3051 22.4537C21.3051 22.3669 21.3485 22.2945 21.4353 22.2366C21.5222 22.1787 21.5946 22.1352 21.6525 22.1063C22.0868 21.9036 22.4921 21.7154 22.8685 21.5417C23.2738 21.368 23.7081 21.1798 24.1713 20.9771C24.2292 18.5741 24.6056 16.5619 25.3005 14.9406C26.0243 13.3192 26.9218 12.0309 27.9931 11.0754C29.0643 10.091 30.1934 9.39619 31.3805 8.99086C32.5965 8.55657 33.7256 8.33943 34.7679 8.33943C36.6209 8.33943 37.9671 8.61448 38.8068 9.16457C39.6753 9.68571 40.1096 10.453 40.1096 11.4663C40.1096 12.1032 39.9649 12.6099 39.6753 12.9863C39.3858 13.3337 38.995 13.5074 38.5028 13.5074C38.2422 13.5074 37.9816 13.4061 37.7211 13.2034C37.4894 12.9718 37.2289 12.6823 36.9393 12.3349C36.4761 11.8716 35.926 11.4084 35.2891 10.9451C34.6811 10.4819 33.8993 10.2503 32.9439 10.2503C31.7279 10.2503 30.758 10.7859 30.0342 11.8571C29.3393 12.9284 28.9919 14.5931 28.9919 16.8514V20.5429C28.9919 20.7455 29.0498 20.8903 29.1656 20.9771C29.2814 21.035 29.4262 21.064 29.5999 21.064H34.6811C34.8837 21.064 35.043 21.1364 35.1588 21.2811C35.2746 21.397 35.3325 21.5417 35.3325 21.7154C35.3325 21.947 35.3035 22.2076 35.2456 22.4971C35.1877 22.7577 35.1009 22.9749 34.9851 23.1486C34.8692 23.3802 34.7534 23.496 34.6376 23.496H30.2948C29.7736 23.496 29.4262 23.5684 29.2525 23.7131C29.0788 23.829 28.9919 24.0461 28.9919 24.3646V35.4823C28.9919 36.1771 29.1656 36.6838 29.5131 37.0023C29.8605 37.2918 30.6277 37.5379 31.8148 37.7406C32.4228 37.8564 32.7268 38.117 32.7268 38.5223C32.7268 38.696 32.6544 38.8408 32.5096 38.9566C32.3649 39.0724 32.1767 39.1303 31.9451 39.1303C31.0765 39.1303 30.1645 39.0869 29.2091 39C28.2536 38.9421 27.3995 38.9131 26.6468 38.9131C26.1546 38.9131 25.6913 38.9276 25.2571 38.9566C24.8228 38.9855 24.3595 39.0145 23.8673 39.0434C23.4041 39.1013 22.883 39.1303 22.3039 39.1303ZM40.2382 40.0857C39.3986 40.0857 38.6603 39.7672 38.0234 39.1303C37.4154 38.5223 37.1114 37.7985 37.1114 36.9589C37.1114 36.0613 37.4154 35.3086 38.0234 34.7006C38.6603 34.0636 39.3986 33.7451 40.2382 33.7451C41.1357 33.7451 41.8885 34.0636 42.4965 34.7006C43.1334 35.3086 43.4519 36.0613 43.4519 36.9589C43.4519 37.7985 43.1334 38.5223 42.4965 39.1303C41.8885 39.7672 41.1357 40.0857 40.2382 40.0857Z"/>
</mask>
<path d="M6.73714 39.1737C6.47657 39.1737 6.24495 39.1158 6.04229 39C5.83962 38.9131 5.73829 38.7829 5.73829 38.6091C5.73829 38.1749 6.10019 37.8853 6.824 37.7406C7.92419 37.509 8.72038 37.1905 9.21257 36.7851C9.70476 36.3798 9.95086 35.7139 9.95086 34.7874V15.0709C9.95086 14.1154 9.74819 13.435 9.34286 13.0297C8.93752 12.6244 8.17029 12.3059 7.04114 12.0743C6.31733 11.9295 5.95543 11.6255 5.95543 11.1623C5.95543 10.9886 6.05676 10.8583 6.25943 10.7714C6.4621 10.6556 6.69371 10.5977 6.95429 10.5977C7.64914 10.5977 8.32952 10.6122 8.99543 10.6411C9.66133 10.6701 10.2983 10.699 10.9063 10.728C11.5432 10.757 12.1802 10.7714 12.8171 10.7714C13.4251 10.7714 14.0331 10.757 14.6411 10.728C15.2781 10.699 15.9295 10.6701 16.5954 10.6411C17.2613 10.6122 17.9417 10.5977 18.6366 10.5977C18.9261 10.5977 19.1577 10.6556 19.3314 10.7714C19.5051 10.8583 19.592 11.003 19.592 11.2057C19.592 11.4373 19.4907 11.6255 19.288 11.7703C19.1143 11.8861 18.8537 11.9874 18.5063 12.0743C17.3482 12.3638 16.5665 12.7112 16.1611 13.1166C15.7558 13.5219 15.5531 14.1878 15.5531 15.1143V34.744C15.5531 35.6415 15.7848 36.293 16.248 36.6983C16.7402 37.1036 17.5364 37.451 18.6366 37.7406C19.013 37.8274 19.288 37.9288 19.4617 38.0446C19.6644 38.1604 19.7657 38.3341 19.7657 38.5657C19.7657 38.7684 19.6789 38.9131 19.5051 39C19.3314 39.0869 19.0998 39.1303 18.8103 39.1303C18.1154 39.1303 17.4206 39.1158 16.7257 39.0869C16.0309 39.0579 15.3505 39.029 14.6846 39C14.0476 38.971 13.4251 38.9566 12.8171 38.9566C12.1802 38.9566 11.5288 38.971 10.8629 39C10.197 39.029 9.51657 39.0579 8.82171 39.0869C8.12686 39.1448 7.432 39.1737 6.73714 39.1737ZM22.3039 39.1303C22.0723 39.1303 21.8696 39.0869 21.6959 39C21.5222 38.8842 21.4353 38.7394 21.4353 38.5657C21.4353 38.3341 21.5077 38.1604 21.6525 38.0446C21.8262 37.9288 22.0433 37.8419 22.3039 37.784C23.0567 37.5524 23.5489 37.3208 23.7805 37.0891C24.0411 36.8575 24.1713 36.4811 24.1713 35.96V23.6697C23.8818 23.6697 23.5489 23.6697 23.1725 23.6697C22.7961 23.6408 22.3763 23.6118 21.9131 23.5829C21.7683 23.5539 21.6235 23.4091 21.4788 23.1486C21.363 22.888 21.3051 22.6564 21.3051 22.4537C21.3051 22.3669 21.3485 22.2945 21.4353 22.2366C21.5222 22.1787 21.5946 22.1352 21.6525 22.1063C22.0868 21.9036 22.4921 21.7154 22.8685 21.5417C23.2738 21.368 23.7081 21.1798 24.1713 20.9771C24.2292 18.5741 24.6056 16.5619 25.3005 14.9406C26.0243 13.3192 26.9218 12.0309 27.9931 11.0754C29.0643 10.091 30.1934 9.39619 31.3805 8.99086C32.5965 8.55657 33.7256 8.33943 34.7679 8.33943C36.6209 8.33943 37.9671 8.61448 38.8068 9.16457C39.6753 9.68571 40.1096 10.453 40.1096 11.4663C40.1096 12.1032 39.9649 12.6099 39.6753 12.9863C39.3858 13.3337 38.995 13.5074 38.5028 13.5074C38.2422 13.5074 37.9816 13.4061 37.7211 13.2034C37.4894 12.9718 37.2289 12.6823 36.9393 12.3349C36.4761 11.8716 35.926 11.4084 35.2891 10.9451C34.6811 10.4819 33.8993 10.2503 32.9439 10.2503C31.7279 10.2503 30.758 10.7859 30.0342 11.8571C29.3393 12.9284 28.9919 14.5931 28.9919 16.8514V20.5429C28.9919 20.7455 29.0498 20.8903 29.1656 20.9771C29.2814 21.035 29.4262 21.064 29.5999 21.064H34.6811C34.8837 21.064 35.043 21.1364 35.1588 21.2811C35.2746 21.397 35.3325 21.5417 35.3325 21.7154C35.3325 21.947 35.3035 22.2076 35.2456 22.4971C35.1877 22.7577 35.1009 22.9749 34.9851 23.1486C34.8692 23.3802 34.7534 23.496 34.6376 23.496H30.2948C29.7736 23.496 29.4262 23.5684 29.2525 23.7131C29.0788 23.829 28.9919 24.0461 28.9919 24.3646V35.4823C28.9919 36.1771 29.1656 36.6838 29.5131 37.0023C29.8605 37.2918 30.6277 37.5379 31.8148 37.7406C32.4228 37.8564 32.7268 38.117 32.7268 38.5223C32.7268 38.696 32.6544 38.8408 32.5096 38.9566C32.3649 39.0724 32.1767 39.1303 31.9451 39.1303C31.0765 39.1303 30.1645 39.0869 29.2091 39C28.2536 38.9421 27.3995 38.9131 26.6468 38.9131C26.1546 38.9131 25.6913 38.9276 25.2571 38.9566C24.8228 38.9855 24.3595 39.0145 23.8673 39.0434C23.4041 39.1013 22.883 39.1303 22.3039 39.1303ZM40.2382 40.0857C39.3986 40.0857 38.6603 39.7672 38.0234 39.1303C37.4154 38.5223 37.1114 37.7985 37.1114 36.9589C37.1114 36.0613 37.4154 35.3086 38.0234 34.7006C38.6603 34.0636 39.3986 33.7451 40.2382 33.7451C41.1357 33.7451 41.8885 34.0636 42.4965 34.7006C43.1334 35.3086 43.4519 36.0613 43.4519 36.9589C43.4519 37.7985 43.1334 38.5223 42.4965 39.1303C41.8885 39.7672 41.1357 40.0857 40.2382 40.0857Z" fill="black"/>
<path d="M6.04229 39L6.29036 38.5659L6.26553 38.5517L6.23925 38.5404L6.04229 39ZM6.824 37.7406L6.92206 38.2309L6.92701 38.2298L6.824 37.7406ZM9.21257 36.7851L8.89472 36.3992V36.3992L9.21257 36.7851ZM9.34286 13.0297L8.9893 13.3833H8.9893L9.34286 13.0297ZM7.04114 12.0743L7.14162 11.5845L7.1392 11.584L7.04114 12.0743ZM6.25943 10.7714L6.45639 11.231L6.48267 11.2197L6.5075 11.2055L6.25943 10.7714ZM8.99543 10.6411L9.01715 10.1416H9.01715L8.99543 10.6411ZM10.9063 10.728L10.8825 11.2274L10.8836 11.2275L10.9063 10.728ZM14.6411 10.728L14.6184 10.2285L14.6174 10.2286L14.6411 10.728ZM16.5954 10.6411L16.5737 10.1416H16.5737L16.5954 10.6411ZM19.3314 10.7714L19.0541 11.1875L19.08 11.2047L19.1078 11.2186L19.3314 10.7714ZM19.288 11.7703L19.5654 12.1863L19.5721 12.1818L19.5786 12.1772L19.288 11.7703ZM18.5063 12.0743L18.6276 12.5594L18.6276 12.5594L18.5063 12.0743ZM16.1611 13.1166L15.8076 12.763H15.8076L16.1611 13.1166ZM16.248 36.6983L15.9187 37.0746L15.9244 37.0795L15.9301 37.0843L16.248 36.6983ZM18.6366 37.7406L18.5093 38.2241L18.5167 38.2261L18.5241 38.2278L18.6366 37.7406ZM19.4617 38.0446L19.1844 38.4606L19.1987 38.4701L19.2136 38.4787L19.4617 38.0446ZM19.5051 39L19.7287 39.4472H19.7288L19.5051 39ZM16.7257 39.0869L16.7465 38.5873L16.7257 39.0869ZM14.6846 39L14.6619 39.4995L14.6629 39.4995L14.6846 39ZM8.82171 39.0869L8.8009 38.5873L8.79053 38.5877L8.78019 38.5886L8.82171 39.0869ZM6.73714 39.1737V38.6737C6.55324 38.6737 6.40897 38.6337 6.29036 38.5659L6.04229 39L5.79422 39.4341C6.08093 39.598 6.3999 39.6737 6.73714 39.6737V39.1737ZM6.04229 39L6.23925 38.5404C6.19052 38.5195 6.19315 38.5098 6.20896 38.5302C6.21737 38.541 6.22583 38.5558 6.23163 38.5732C6.23733 38.5903 6.23829 38.6033 6.23829 38.6091H5.73829H5.23829C5.23829 38.8009 5.29693 38.9864 5.41961 39.1441C5.53675 39.2947 5.69138 39.3936 5.84533 39.4596L6.04229 39ZM5.73829 38.6091H6.23829C6.23829 38.5553 6.25055 38.5139 6.32206 38.4567C6.41424 38.383 6.59691 38.2959 6.92206 38.2309L6.824 37.7406L6.72594 37.2503C6.32728 37.33 5.96709 37.4601 5.69737 37.6758C5.40697 37.9082 5.23829 38.2287 5.23829 38.6091H5.73829ZM6.824 37.7406L6.92701 38.2298C8.05438 37.9925 8.94509 37.6531 9.53043 37.1711L9.21257 36.7851L8.89472 36.3992C8.49567 36.7278 7.794 37.0254 6.72099 37.2513L6.824 37.7406ZM9.21257 36.7851L9.53043 37.1711C10.1828 36.6339 10.4509 35.7934 10.4509 34.7874H9.95086H9.45086C9.45086 35.6344 9.22672 36.1258 8.89472 36.3992L9.21257 36.7851ZM9.95086 34.7874H10.4509V15.0709H9.95086H9.45086V34.7874H9.95086ZM9.95086 15.0709H10.4509C10.4509 14.0664 10.2415 13.2213 9.69641 12.6762L9.34286 13.0297L8.9893 13.3833C9.25486 13.6488 9.45086 14.1644 9.45086 15.0709H9.95086ZM9.34286 13.0297L9.69641 12.6762C9.18079 12.1605 8.28684 11.8194 7.14161 11.5845L7.04114 12.0743L6.94067 12.5641C8.05373 12.7924 8.69425 13.0882 8.9893 13.3833L9.34286 13.0297ZM7.04114 12.0743L7.1392 11.584C6.81768 11.5197 6.6388 11.4308 6.54845 11.3549C6.47795 11.2956 6.45543 11.2428 6.45543 11.1623H5.95543H5.45543C5.45543 11.545 5.61386 11.8758 5.90526 12.1206C6.17682 12.3487 6.54079 12.4841 6.94308 12.5646L7.04114 12.0743ZM5.95543 11.1623H6.45543C6.45543 11.1681 6.45447 11.1812 6.44877 11.1983C6.44297 11.2157 6.43451 11.2305 6.4261 11.2413C6.4103 11.2616 6.40767 11.2519 6.45639 11.231L6.25943 10.7714L6.06247 10.3119C5.90852 10.3778 5.75389 10.4767 5.63675 10.6273C5.51408 10.785 5.45543 10.9705 5.45543 11.1623H5.95543ZM6.25943 10.7714L6.5075 11.2055C6.62612 11.1378 6.77038 11.0977 6.95429 11.0977V10.5977V10.0977C6.61704 10.0977 6.29807 10.1735 6.01136 10.3373L6.25943 10.7714ZM6.95429 10.5977V11.0977C7.64221 11.0977 8.31534 11.112 8.97371 11.1407L8.99543 10.6411L9.01715 10.1416C8.34371 10.1123 7.65608 10.0977 6.95429 10.0977V10.5977ZM8.99543 10.6411L8.97371 11.1407C9.63899 11.1696 10.2753 11.1985 10.8825 11.2274L10.9063 10.728L10.9301 10.2286C10.3213 10.1996 9.68368 10.1706 9.01715 10.1416L8.99543 10.6411ZM10.9063 10.728L10.8836 11.2275C11.5281 11.2568 12.1726 11.2714 12.8171 11.2714V10.7714V10.2714C12.1878 10.2714 11.5584 10.2571 10.929 10.2285L10.9063 10.728ZM12.8171 10.7714V11.2714C13.4331 11.2714 14.049 11.2568 14.6649 11.2274L14.6411 10.728L14.6174 10.2286C14.0173 10.2571 13.4172 10.2714 12.8171 10.2714V10.7714ZM14.6411 10.728L14.6638 11.2275C15.3005 11.1985 15.9516 11.1696 16.6171 11.1407L16.5954 10.6411L16.5737 10.1416C15.9075 10.1706 15.2557 10.1995 14.6184 10.2285L14.6411 10.728ZM16.5954 10.6411L16.6171 11.1407C17.2755 11.112 17.9487 11.0977 18.6366 11.0977V10.5977V10.0977C17.9348 10.0977 17.2471 10.1123 16.5737 10.1416L16.5954 10.6411ZM18.6366 10.5977V11.0977C18.8643 11.0977 18.9886 11.1438 19.0541 11.1875L19.3314 10.7714L19.6088 10.3554C19.3268 10.1674 18.9879 10.0977 18.6366 10.0977V10.5977ZM19.3314 10.7714L19.1078 11.2186C19.1164 11.2229 19.117 11.2244 19.1132 11.2211C19.1114 11.2195 19.1089 11.217 19.1061 11.2137C19.1033 11.2103 19.1006 11.2065 19.0981 11.2024C19.0929 11.1938 19.091 11.1874 19.0906 11.1858C19.0904 11.1848 19.092 11.1907 19.092 11.2057H19.592H20.092C20.092 11.032 20.0542 10.8523 19.9556 10.6879C19.8562 10.5223 19.7139 10.4036 19.555 10.3242L19.3314 10.7714ZM19.592 11.2057H19.092C19.092 11.2621 19.0802 11.3042 18.9974 11.3634L19.288 11.7703L19.5786 12.1772C19.9011 11.9468 20.092 11.6126 20.092 11.2057H19.592ZM19.288 11.7703L19.0107 11.3543C18.9069 11.4234 18.7107 11.5078 18.385 11.5892L18.5063 12.0743L18.6276 12.5594C18.9967 12.4671 19.3217 12.3488 19.5654 12.1863L19.288 11.7703ZM18.5063 12.0743L18.385 11.5892C17.2154 11.8816 16.3161 12.2545 15.8076 12.763L16.1611 13.1166L16.5147 13.4701C16.8169 13.1679 17.481 12.846 18.6276 12.5594L18.5063 12.0743ZM16.1611 13.1166L15.8076 12.763C15.2648 13.3058 15.0531 14.1335 15.0531 15.1143H15.5531H16.0531C16.0531 14.2421 16.2469 13.738 16.5147 13.4701L16.1611 13.1166ZM15.5531 15.1143H15.0531V34.744H15.5531H16.0531V15.1143H15.5531ZM15.5531 34.744H15.0531C15.0531 35.7183 15.3049 36.5375 15.9187 37.0746L16.248 36.6983L16.5773 36.322C16.2646 36.0485 16.0531 35.5648 16.0531 34.744H15.5531ZM16.248 36.6983L15.9301 37.0843C16.506 37.5585 17.3857 37.9284 18.5093 38.2241L18.6366 37.7406L18.7638 37.257C17.6871 36.9737 16.9744 36.6488 16.5659 36.3123L16.248 36.6983ZM18.6366 37.7406L18.5241 38.2278C18.883 38.3106 19.087 38.3957 19.1844 38.4606L19.4617 38.0446L19.7391 37.6285C19.489 37.4619 19.1429 37.3443 18.749 37.2534L18.6366 37.7406ZM19.4617 38.0446L19.2136 38.4787C19.2331 38.4898 19.2442 38.4989 19.2499 38.5044C19.2553 38.5095 19.2572 38.5126 19.2578 38.5136C19.2584 38.5147 19.26 38.5175 19.2616 38.5241C19.2634 38.5311 19.2657 38.5443 19.2657 38.5657H19.7657H20.2657C20.2657 38.1529 20.0667 37.8144 19.7098 37.6105L19.4617 38.0446ZM19.7657 38.5657H19.2657C19.2657 38.5808 19.2641 38.5866 19.2644 38.5856C19.2647 38.5841 19.2667 38.5776 19.2718 38.569C19.2743 38.565 19.277 38.5612 19.2798 38.5578C19.2826 38.5544 19.2851 38.5519 19.287 38.5503C19.2907 38.547 19.2901 38.5485 19.2815 38.5528L19.5051 39L19.7288 39.4472C19.8876 39.3678 20.0299 39.2492 20.1293 39.0835C20.2279 38.9192 20.2657 38.7394 20.2657 38.5657H19.7657ZM19.5051 39L19.2815 38.5528C19.2029 38.5921 19.0571 38.6303 18.8103 38.6303V39.1303V39.6303C19.1425 39.6303 19.4599 39.5816 19.7287 39.4472L19.5051 39ZM18.8103 39.1303V38.6303C18.1224 38.6303 17.4345 38.616 16.7465 38.5873L16.7257 39.0869L16.7049 39.5864C17.4067 39.6157 18.1085 39.6303 18.8103 39.6303V39.1303ZM16.7257 39.0869L16.7465 38.5873C16.052 38.5583 15.3719 38.5294 14.7063 38.5005L14.6846 39L14.6629 39.4995C15.3291 39.5285 16.0098 39.5575 16.7049 39.5864L16.7257 39.0869ZM14.6846 39L14.7073 38.5005C14.0631 38.4712 13.4331 38.4566 12.8171 38.4566V38.9566V39.4566C13.4172 39.4566 14.0321 39.4709 14.6619 39.4995L14.6846 39ZM12.8171 38.9566V38.4566C12.1726 38.4566 11.5139 38.4712 10.8411 38.5005L10.8629 39L10.8846 39.4995C11.5436 39.4709 12.1878 39.4566 12.8171 39.4566V38.9566ZM10.8629 39L10.8411 38.5005C10.1755 38.5294 9.49547 38.5583 8.8009 38.5873L8.82171 39.0869L8.84253 39.5864C9.53767 39.5575 10.2184 39.5285 10.8846 39.4995L10.8629 39ZM8.82171 39.0869L8.78019 38.5886C8.0991 38.6453 7.41809 38.6737 6.73714 38.6737V39.1737V39.6737C7.44591 39.6737 8.15462 39.6442 8.86324 39.5851L8.82171 39.0869ZM21.6959 39L21.4186 39.416L21.4445 39.4333L21.4723 39.4472L21.6959 39ZM21.6525 38.0446L21.3751 37.6285L21.3571 37.6406L21.3401 37.6541L21.6525 38.0446ZM22.3039 37.784L22.4124 38.2721L22.4319 38.2678L22.451 38.2619L22.3039 37.784ZM23.7805 37.0891L23.4483 36.7154L23.4373 36.7252L23.4269 36.7356L23.7805 37.0891ZM24.1713 23.6697H24.6713V23.1697H24.1713V23.6697ZM23.1725 23.6697L23.1341 24.1682L23.1533 24.1697H23.1725V23.6697ZM21.9131 23.5829L21.815 24.0731L21.8481 24.0798L21.8819 24.0819L21.9131 23.5829ZM21.4788 23.1486L21.0219 23.3516L21.0309 23.372L21.0417 23.3914L21.4788 23.1486ZM21.4353 22.2366L21.7127 22.6526V22.6526L21.4353 22.2366ZM21.6525 22.1063L21.441 21.653L21.4289 21.6591L21.6525 22.1063ZM22.8685 21.5417L22.6714 21.082L22.659 21.0877L22.8685 21.5417ZM24.1713 20.9771L24.3717 21.4352L24.6635 21.3076L24.6712 20.9892L24.1713 20.9771ZM25.3005 14.9406L24.8439 14.7367L24.8409 14.7436L25.3005 14.9406ZM27.9931 11.0754L28.3259 11.4486L28.3314 11.4436L27.9931 11.0754ZM31.3805 8.99086L31.5421 9.46408L31.5486 9.46173L31.3805 8.99086ZM38.8068 9.16457L38.5328 9.5828L38.541 9.58823L38.5495 9.59332L38.8068 9.16457ZM39.6753 12.9863L40.0594 13.3064L40.0657 13.2989L40.0717 13.2911L39.6753 12.9863ZM37.7211 13.2034L37.3675 13.557L37.3895 13.579L37.4141 13.5981L37.7211 13.2034ZM36.9393 12.3349L37.3234 12.0148L37.3089 11.9973L37.2929 11.9813L36.9393 12.3349ZM35.2891 10.9451L34.986 11.343L34.995 11.3495L35.2891 10.9451ZM30.0342 11.8571L29.6198 11.5772L29.6147 11.585L30.0342 11.8571ZM29.1656 20.9771L28.8656 21.3771L28.9017 21.4042L28.942 21.4244L29.1656 20.9771ZM35.1588 21.2811L34.7683 21.5935L34.7856 21.6151L34.8052 21.6347L35.1588 21.2811ZM35.2456 22.4971L35.7338 22.6056L35.7359 22.5952L35.2456 22.4971ZM34.9851 23.1486L34.569 22.8712L34.5518 22.8971L34.5378 22.925L34.9851 23.1486ZM29.2525 23.7131L29.5298 24.1292L29.5521 24.1144L29.5726 24.0973L29.2525 23.7131ZM29.5131 37.0023L29.1752 37.3709L29.1839 37.3788L29.193 37.3864L29.5131 37.0023ZM31.8148 37.7406L31.9083 37.2493L31.8989 37.2477L31.8148 37.7406ZM32.5096 38.9566L32.822 39.347V39.347L32.5096 38.9566ZM29.2091 39L29.2543 38.5021L29.2468 38.5014L29.2393 38.5009L29.2091 39ZM25.2571 38.9566L25.2903 39.4555V39.4555L25.2571 38.9566ZM23.8673 39.0434L23.838 38.5443L23.8216 38.5453L23.8053 38.5473L23.8673 39.0434ZM22.3039 39.1303V38.6303C22.1351 38.6303 22.0117 38.5989 21.9195 38.5528L21.6959 39L21.4723 39.4472C21.7276 39.5749 22.0095 39.6303 22.3039 39.6303V39.1303ZM21.6959 39L21.9733 38.584C21.9338 38.5576 21.9266 38.543 21.9292 38.5473C21.9305 38.5495 21.9325 38.5537 21.934 38.559C21.9354 38.5643 21.9353 38.567 21.9353 38.5657H21.4353H20.9353C20.9353 38.942 21.138 39.229 21.4186 39.416L21.6959 39ZM21.4353 38.5657H21.9353C21.9353 38.5011 21.9455 38.4676 21.9512 38.454C21.9556 38.4435 21.9591 38.4396 21.9648 38.435L21.6525 38.0446L21.3401 37.6541C21.0477 37.8881 20.9353 38.2237 20.9353 38.5657H21.4353ZM21.6525 38.0446L21.9298 38.4606C22.0401 38.3871 22.196 38.3202 22.4124 38.2721L22.3039 37.784L22.1954 37.2959C21.8906 37.3636 21.6123 37.4704 21.3751 37.6285L21.6525 38.0446ZM22.3039 37.784L22.451 38.2619C22.8408 38.1419 23.176 38.0182 23.4505 37.889C23.7191 37.7626 23.9593 37.6175 24.134 37.4427L23.7805 37.0891L23.4269 36.7356C23.3701 36.7924 23.2484 36.8789 23.0247 36.9842C22.8071 37.0866 22.5198 37.1945 22.1569 37.3061L22.3039 37.784ZM23.7805 37.0891L24.1127 37.4628C24.5236 37.0975 24.6713 36.5527 24.6713 35.96H24.1713H23.6713C23.6713 36.4096 23.5585 36.6175 23.4483 36.7154L23.7805 37.0891ZM24.1713 35.96H24.6713V23.6697H24.1713H23.6713V35.96H24.1713ZM24.1713 23.6697V23.1697C24.1708 23.1697 24.1702 23.1697 24.1696 23.1697C24.1691 23.1697 24.1685 23.1697 24.1679 23.1697C24.1674 23.1697 24.1668 23.1697 24.1662 23.1697C24.1657 23.1697 24.1651 23.1697 24.1645 23.1697C24.164 23.1697 24.1634 23.1697 24.1628 23.1697C24.1623 23.1697 24.1617 23.1697 24.1611 23.1697C24.1606 23.1697 24.16 23.1697 24.1594 23.1697C24.1589 23.1697 24.1583 23.1697 24.1577 23.1697C24.1572 23.1697 24.1566 23.1697 24.156 23.1697C24.1555 23.1697 24.1549 23.1697 24.1543 23.1697C24.1538 23.1697 24.1532 23.1697 24.1526 23.1697C24.152 23.1697 24.1515 23.1697 24.1509 23.1697C24.1503 23.1697 24.1498 23.1697 24.1492 23.1697C24.1486 23.1697 24.1481 23.1697 24.1475 23.1697C24.1469 23.1697 24.1464 23.1697 24.1458 23.1697C24.1452 23.1697 24.1446 23.1697 24.1441 23.1697C24.1435 23.1697 24.1429 23.1697 24.1424 23.1697C24.1418 23.1697 24.1412 23.1697 24.1406 23.1697C24.1401 23.1697 24.1395 23.1697 24.1389 23.1697C24.1384 23.1697 24.1378 23.1697 24.1372 23.1697C24.1366 23.1697 24.1361 23.1697 24.1355 23.1697C24.1349 23.1697 24.1343 23.1697 24.1338 23.1697C24.1332 23.1697 24.1326 23.1697 24.1321 23.1697C24.1315 23.1697 24.1309 23.1697 24.1303 23.1697C24.1298 23.1697 24.1292 23.1697 24.1286 23.1697C24.128 23.1697 24.1275 23.1697 24.1269 23.1697C24.1263 23.1697 24.1257 23.1697 24.1252 23.1697C24.1246 23.1697 24.124 23.1697 24.1234 23.1697C24.1229 23.1697 24.1223 23.1697 24.1217 23.1697C24.1211 23.1697 24.1206 23.1697 24.12 23.1697C24.1194 23.1697 24.1188 23.1697 24.1183 23.1697C24.1177 23.1697 24.1171 23.1697 24.1165 23.1697C24.116 23.1697 24.1154 23.1697 24.1148 23.1697C24.1142 23.1697 24.1137 23.1697 24.1131 23.1697C24.1125 23.1697 24.1119 23.1697 24.1114 23.1697C24.1108 23.1697 24.1102 23.1697 24.1096 23.1697C24.109 23.1697 24.1085 23.1697 24.1079 23.1697C24.1073 23.1697 24.1067 23.1697 24.1062 23.1697C24.1056 23.1697 24.105 23.1697 24.1044 23.1697C24.1038 23.1697 24.1033 23.1697 24.1027 23.1697C24.1021 23.1697 24.1015 23.1697 24.1009 23.1697C24.1004 23.1697 24.0998 23.1697 24.0992 23.1697C24.0986 23.1697 24.0981 23.1697 24.0975 23.1697C24.0969 23.1697 24.0963 23.1697 24.0957 23.1697C24.0952 23.1697 24.0946 23.1697 24.094 23.1697C24.0934 23.1697 24.0928 23.1697 24.0923 23.1697C24.0917 23.1697 24.0911 23.1697 24.0905 23.1697C24.0899 23.1697 24.0893 23.1697 24.0888 23.1697C24.0882 23.1697 24.0876 23.1697 24.087 23.1697C24.0864 23.1697 24.0859 23.1697 24.0853 23.1697C24.0847 23.1697 24.0841 23.1697 24.0835 23.1697C24.0829 23.1697 24.0824 23.1697 24.0818 23.1697C24.0812 23.1697 24.0806 23.1697 24.08 23.1697C24.0794 23.1697 24.0789 23.1697 24.0783 23.1697C24.0777 23.1697 24.0771 23.1697 24.0765 23.1697C24.0759 23.1697 24.0754 23.1697 24.0748 23.1697C24.0742 23.1697 24.0736 23.1697 24.073 23.1697C24.0724 23.1697 24.0719 23.1697 24.0713 23.1697C24.0707 23.1697 24.0701 23.1697 24.0695 23.1697C24.0689 23.1697 24.0683 23.1697 24.0678 23.1697C24.0672 23.1697 24.0666 23.1697 24.066 23.1697C24.0654 23.1697 24.0648 23.1697 24.0642 23.1697C24.0637 23.1697 24.0631 23.1697 24.0625 23.1697C24.0619 23.1697 24.0613 23.1697 24.0607 23.1697C24.0601 23.1697 24.0596 23.1697 24.059 23.1697C24.0584 23.1697 24.0578 23.1697 24.0572 23.1697C24.0566 23.1697 24.056 23.1697 24.0554 23.1697C24.0549 23.1697 24.0543 23.1697 24.0537 23.1697C24.0531 23.1697 24.0525 23.1697 24.0519 23.1697C24.0513 23.1697 24.0507 23.1697 24.0502 23.1697C24.0496 23.1697 24.049 23.1697 24.0484 23.1697C24.0478 23.1697 24.0472 23.1697 24.0466 23.1697C24.046 23.1697 24.0454 23.1697 24.0449 23.1697C24.0443 23.1697 24.0437 23.1697 24.0431 23.1697C24.0425 23.1697 24.0419 23.1697 24.0413 23.1697C24.0407 23.1697 24.0401 23.1697 24.0395 23.1697C24.0389 23.1697 24.0384 23.1697 24.0378 23.1697C24.0372 23.1697 24.0366 23.1697 24.036 23.1697C24.0354 23.1697 24.0348 23.1697 24.0342 23.1697C24.0336 23.1697 24.033 23.1697 24.0324 23.1697C24.0319 23.1697 24.0313 23.1697 24.0307 23.1697C24.0301 23.1697 24.0295 23.1697 24.0289 23.1697C24.0283 23.1697 24.0277 23.1697 24.0271 23.1697C24.0265 23.1697 24.0259 23.1697 24.0253 23.1697C24.0247 23.1697 24.0241 23.1697 24.0236 23.1697C24.023 23.1697 24.0224 23.1697 24.0218 23.1697C24.0212 23.1697 24.0206 23.1697 24.02 23.1697C24.0194 23.1697 24.0188 23.1697 24.0182 23.1697C24.0176 23.1697 24.017 23.1697 24.0164 23.1697C24.0158 23.1697 24.0152 23.1697 24.0146 23.1697C24.014 23.1697 24.0134 23.1697 24.0128 23.1697C24.0123 23.1697 24.0117 23.1697 24.0111 23.1697C24.0105 23.1697 24.0099 23.1697 24.0093 23.1697C24.0087 23.1697 24.0081 23.1697 24.0075 23.1697C24.0069 23.1697 24.0063 23.1697 24.0057 23.1697C24.0051 23.1697 24.0045 23.1697 24.0039 23.1697C24.0033 23.1697 24.0027 23.1697 24.0021 23.1697C24.0015 23.1697 24.0009 23.1697 24.0003 23.1697C23.9997 23.1697 23.9991 23.1697 23.9985 23.1697C23.9979 23.1697 23.9973 23.1697 23.9967 23.1697C23.9961 23.1697 23.9955 23.1697 23.9949 23.1697C23.9943 23.1697 23.9937 23.1697 23.9931 23.1697C23.9925 23.1697 23.9919 23.1697 23.9913 23.1697C23.9907 23.1697 23.9901 23.1697 23.9895 23.1697C23.9889 23.1697 23.9883 23.1697 23.9877 23.1697C23.9871 23.1697 23.9865 23.1697 23.9859 23.1697C23.9853 23.1697 23.9847 23.1697 23.9841 23.1697C23.9835 23.1697 23.9829 23.1697 23.9823 23.1697C23.9817 23.1697 23.9811 23.1697 23.9805 23.1697C23.9799 23.1697 23.9793 23.1697 23.9787 23.1697C23.9781 23.1697 23.9775 23.1697 23.9769 23.1697C23.9763 23.1697 23.9757 23.1697 23.9751 23.1697C23.9745 23.1697 23.9739 23.1697 23.9733 23.1697C23.9727 23.1697 23.9721 23.1697 23.9715 23.1697C23.9709 23.1697 23.9703 23.1697 23.9697 23.1697C23.9691 23.1697 23.9685 23.1697 23.9679 23.1697C23.9673 23.1697 23.9667 23.1697 23.9661 23.1697C23.9654 23.1697 23.9648 23.1697 23.9642 23.1697C23.9636 23.1697 23.963 23.1697 23.9624 23.1697C23.9618 23.1697 23.9612 23.1697 23.9606 23.1697C23.96 23.1697 23.9594 23.1697 23.9588 23.1697C23.9582 23.1697 23.9576 23.1697 23.957 23.1697C23.9564 23.1697 23.9558 23.1697 23.9552 23.1697C23.9546 23.1697 23.9539 23.1697 23.9533 23.1697C23.9527 23.1697 23.9521 23.1697 23.9515 23.1697C23.9509 23.1697 23.9503 23.1697 23.9497 23.1697C23.9491 23.1697 23.9485 23.1697 23.9479 23.1697C23.9473 23.1697 23.9467 23.1697 23.9461 23.1697C23.9454 23.1697 23.9448 23.1697 23.9442 23.1697C23.9436 23.1697 23.943 23.1697 23.9424 23.1697C23.9418 23.1697 23.9412 23.1697 23.9406 23.1697C23.94 23.1697 23.9394 23.1697 23.9387 23.1697C23.9381 23.1697 23.9375 23.1697 23.9369 23.1697C23.9363 23.1697 23.9357 23.1697 23.9351 23.1697C23.9345 23.1697 23.9339 23.1697 23.9333 23.1697C23.9327 23.1697 23.932 23.1697 23.9314 23.1697C23.9308 23.1697 23.9302 23.1697 23.9296 23.1697C23.929 23.1697 23.9284 23.1697 23.9278 23.1697C23.9272 23.1697 23.9265 23.1697 23.9259 23.1697C23.9253 23.1697 23.9247 23.1697 23.9241 23.1697C23.9235 23.1697 23.9229 23.1697 23.9223 23.1697C23.9216 23.1697 23.921 23.1697 23.9204 23.1697C23.9198 23.1697 23.9192 23.1697 23.9186 23.1697C23.918 23.1697 23.9174 23.1697 23.9167 23.1697C23.9161 23.1697 23.9155 23.1697 23.9149 23.1697C23.9143 23.1697 23.9137 23.1697 23.9131 23.1697C23.9125 23.1697 23.9118 23.1697 23.9112 23.1697C23.9106 23.1697 23.91 23.1697 23.9094 23.1697C23.9088 23.1697 23.9082 23.1697 23.9075 23.1697C23.9069 23.1697 23.9063 23.1697 23.9057 23.1697C23.9051 23.1697 23.9045 23.1697 23.9038 23.1697C23.9032 23.1697 23.9026 23.1697 23.902 23.1697C23.9014 23.1697 23.9008 23.1697 23.9002 23.1697C23.8995 23.1697 23.8989 23.1697 23.8983 23.1697C23.8977 23.1697 23.8971 23.1697 23.8965 23.1697C23.8958 23.1697 23.8952 23.1697 23.8946 23.1697C23.894 23.1697 23.8934 23.1697 23.8927 23.1697C23.8921 23.1697 23.8915 23.1697 23.8909 23.1697C23.8903 23.1697 23.8897 23.1697 23.889 23.1697C23.8884 23.1697 23.8878 23.1697 23.8872 23.1697C23.8866 23.1697 23.886 23.1697 23.8853 23.1697C23.8847 23.1697 23.8841 23.1697 23.8835 23.1697C23.8829 23.1697 23.8822 23.1697 23.8816 23.1697C23.881 23.1697 23.8804 23.1697 23.8798 23.1697C23.8791 23.1697 23.8785 23.1697 23.8779 23.1697C23.8773 23.1697 23.8767 23.1697 23.876 23.1697C23.8754 23.1697 23.8748 23.1697 23.8742 23.1697C23.8736 23.1697 23.8729 23.1697 23.8723 23.1697C23.8717 23.1697 23.8711 23.1697 23.8704 23.1697C23.8698 23.1697 23.8692 23.1697 23.8686 23.1697C23.868 23.1697 23.8673 23.1697 23.8667 23.1697C23.8661 23.1697 23.8655 23.1697 23.8648 23.1697C23.8642 23.1697 23.8636 23.1697 23.863 23.1697C23.8624 23.1697 23.8617 23.1697 23.8611 23.1697C23.8605 23.1697 23.8599 23.1697 23.8592 23.1697C23.8586 23.1697 23.858 23.1697 23.8574 23.1697C23.8567 23.1697 23.8561 23.1697 23.8555 23.1697C23.8549 23.1697 23.8543 23.1697 23.8536 23.1697C23.853 23.1697 23.8524 23.1697 23.8518 23.1697C23.8511 23.1697 23.8505 23.1697 23.8499 23.1697C23.8493 23.1697 23.8486 23.1697 23.848 23.1697C23.8474 23.1697 23.8468 23.1697 23.8461 23.1697C23.8455 23.1697 23.8449 23.1697 23.8442 23.1697C23.8436 23.1697 23.843 23.1697 23.8424 23.1697C23.8417 23.1697 23.8411 23.1697 23.8405 23.1697C23.8399 23.1697 23.8392 23.1697 23.8386 23.1697C23.838 23.1697 23.8374 23.1697 23.8367 23.1697C23.8361 23.1697 23.8355 23.1697 23.8348 23.1697C23.8342 23.1697 23.8336 23.1697 23.833 23.1697C23.8323 23.1697 23.8317 23.1697 23.8311 23.1697C23.8304 23.1697 23.8298 23.1697 23.8292 23.1697C23.8286 23.1697 23.8279 23.1697 23.8273 23.1697C23.8267 23.1697 23.826 23.1697 23.8254 23.1697C23.8248 23.1697 23.8242 23.1697 23.8235 23.1697C23.8229 23.1697 23.8223 23.1697 23.8216 23.1697C23.821 23.1697 23.8204 23.1697 23.8197 23.1697C23.8191 23.1697 23.8185 23.1697 23.8179 23.1697C23.8172 23.1697 23.8166 23.1697 23.816 23.1697C23.8153 23.1697 23.8147 23.1697 23.8141 23.1697C23.8134 23.1697 23.8128 23.1697 23.8122 23.1697C23.8115 23.1697 23.8109 23.1697 23.8103 23.1697C23.8096 23.1697 23.809 23.1697 23.8084 23.1697C23.8077 23.1697 23.8071 23.1697 23.8065 23.1697C23.8058 23.1697 23.8052 23.1697 23.8046 23.1697C23.804 23.1697 23.8033 23.1697 23.8027 23.1697C23.8021 23.1697 23.8014 23.1697 23.8008 23.1697C23.8001 23.1697 23.7995 23.1697 23.7989 23.1697C23.7982 23.1697 23.7976 23.1697 23.797 23.1697C23.7963 23.1697 23.7957 23.1697 23.7951 23.1697C23.7944 23.1697 23.7938 23.1697 23.7932 23.1697C23.7925 23.1697 23.7919 23.1697 23.7913 23.1697C23.7906 23.1697 23.79 23.1697 23.7894 23.1697C23.7887 23.1697 23.7881 23.1697 23.7875 23.1697C23.7868 23.1697 23.7862 23.1697 23.7855 23.1697C23.7849 23.1697 23.7843 23.1697 23.7836 23.1697C23.783 23.1697 23.7824 23.1697 23.7817 23.1697C23.7811 23.1697 23.7804 23.1697 23.7798 23.1697C23.7792 23.1697 23.7785 23.1697 23.7779 23.1697C23.7773 23.1697 23.7766 23.1697 23.776 23.1697C23.7753 23.1697 23.7747 23.1697 23.7741 23.1697C23.7734 23.1697 23.7728 23.1697 23.7722 23.1697C23.7715 23.1697 23.7709 23.1697 23.7702 23.1697C23.7696 23.1697 23.769 23.1697 23.7683 23.1697C23.7677 23.1697 23.767 23.1697 23.7664 23.1697C23.7658 23.1697 23.7651 23.1697 23.7645 23.1697C23.7638 23.1697 23.7632 23.1697 23.7626 23.1697C23.7619 23.1697 23.7613 23.1697 23.7606 23.1697C23.76 23.1697 23.7594 23.1697 23.7587 23.1697C23.7581 23.1697 23.7574 23.1697 23.7568 23.1697C23.7562 23.1697 23.7555 23.1697 23.7549 23.1697C23.7542 23.1697 23.7536 23.1697 23.7529 23.1697C23.7523 23.1697 23.7517 23.1697 23.751 23.1697C23.7504 23.1697 23.7497 23.1697 23.7491 23.1697C23.7484 23.1697 23.7478 23.1697 23.7472 23.1697C23.7465 23.1697 23.7459 23.1697 23.7452 23.1697C23.7446 23.1697 23.7439 23.1697 23.7433 23.1697C23.7427 23.1697 23.742 23.1697 23.7414 23.1697C23.7407 23.1697 23.7401 23.1697 23.7394 23.1697C23.7388 23.1697 23.7381 23.1697 23.7375 23.1697C23.7369 23.1697 23.7362 23.1697 23.7356 23.1697C23.7349 23.1697 23.7343 23.1697 23.7336 23.1697C23.733 23.1697 23.7323 23.1697 23.7317 23.1697C23.7311 23.1697 23.7304 23.1697 23.7298 23.1697C23.7291 23.1697 23.7285 23.1697 23.7278 23.1697C23.7272 23.1697 23.7265 23.1697 23.7259 23.1697C23.7252 23.1697 23.7246 23.1697 23.7239 23.1697C23.7233 23.1697 23.7226 23.1697 23.722 23.1697C23.7214 23.1697 23.7207 23.1697 23.7201 23.1697C23.7194 23.1697 23.7188 23.1697 23.7181 23.1697C23.7175 23.1697 23.7168 23.1697 23.7162 23.1697C23.7155 23.1697 23.7149 23.1697 23.7142 23.1697C23.7136 23.1697 23.7129 23.1697 23.7123 23.1697C23.7116 23.1697 23.711 23.1697 23.7103 23.1697C23.7097 23.1697 23.709 23.1697 23.7084 23.1697C23.7077 23.1697 23.7071 23.1697 23.7064 23.1697C23.7058 23.1697 23.7051 23.1697 23.7045 23.1697C23.7038 23.1697 23.7032 23.1697 23.7025 23.1697C23.7019 23.1697 23.7012 23.1697 23.7006 23.1697C23.6999 23.1697 23.6993 23.1697 23.6986 23.1697C23.698 23.1697 23.6973 23.1697 23.6967 23.1697C23.696 23.1697 23.6954 23.1697 23.6947 23.1697C23.6941 23.1697 23.6934 23.1697 23.6928 23.1697C23.6921 23.1697 23.6915 23.1697 23.6908 23.1697C23.6901 23.1697 23.6895 23.1697 23.6888 23.1697C23.6882 23.1697 23.6875 23.1697 23.6869 23.1697C23.6862 23.1697 23.6856 23.1697 23.6849 23.1697C23.6843 23.1697 23.6836 23.1697 23.683 23.1697C23.6823 23.1697 23.6817 23.1697 23.681 23.1697C23.6803 23.1697 23.6797 23.1697 23.679 23.1697C23.6784 23.1697 23.6777 23.1697 23.6771 23.1697C23.6764 23.1697 23.6758 23.1697 23.6751 23.1697C23.6744 23.1697 23.6738 23.1697 23.6731 23.1697C23.6725 23.1697 23.6718 23.1697 23.6712 23.1697C23.6705 23.1697 23.6699 23.1697 23.6692 23.1697C23.6685 23.1697 23.6679 23.1697 23.6672 23.1697C23.6666 23.1697 23.6659 23.1697 23.6653 23.1697C23.6646 23.1697 23.6639 23.1697 23.6633 23.1697C23.6626 23.1697 23.662 23.1697 23.6613 23.1697C23.6607 23.1697 23.66 23.1697 23.6593 23.1697C23.6587 23.1697 23.658 23.1697 23.6574 23.1697C23.6567 23.1697 23.6561 23.1697 23.6554 23.1697C23.6547 23.1697 23.6541 23.1697 23.6534 23.1697C23.6528 23.1697 23.6521 23.1697 23.6514 23.1697C23.6508 23.1697 23.6501 23.1697 23.6495 23.1697C23.6488 23.1697 23.6481 23.1697 23.6475 23.1697C23.6468 23.1697 23.6462 23.1697 23.6455 23.1697C23.6448 23.1697 23.6442 23.1697 23.6435 23.1697C23.6429 23.1697 23.6422 23.1697 23.6415 23.1697C23.6409 23.1697 23.6402 23.1697 23.6396 23.1697C23.6389 23.1697 23.6382 23.1697 23.6376 23.1697C23.6369 23.1697 23.6363 23.1697 23.6356 23.1697C23.6349 23.1697 23.6343 23.1697 23.6336 23.1697C23.6329 23.1697 23.6323 23.1697 23.6316 23.1697C23.631 23.1697 23.6303 23.1697 23.6296 23.1697C23.629 23.1697 23.6283 23.1697 23.6276 23.1697C23.627 23.1697 23.6263 23.1697 23.6257 23.1697C23.625 23.1697 23.6243 23.1697 23.6237 23.1697C23.623 23.1697 23.6223 23.1697 23.6217 23.1697C23.621 23.1697 23.6203 23.1697 23.6197 23.1697C23.619 23.1697 23.6183 23.1697 23.6177 23.1697C23.617 23.1697 23.6164 23.1697 23.6157 23.1697C23.615 23.1697 23.6144 23.1697 23.6137 23.1697C23.613 23.1697 23.6124 23.1697 23.6117 23.1697C23.611 23.1697 23.6104 23.1697 23.6097 23.1697C23.609 23.1697 23.6084 23.1697 23.6077 23.1697C23.607 23.1697 23.6064 23.1697 23.6057 23.1697C23.605 23.1697 23.6044 23.1697 23.6037 23.1697C23.603 23.1697 23.6024 23.1697 23.6017 23.1697C23.601 23.1697 23.6004 23.1697 23.5997 23.1697C23.599 23.1697 23.5984 23.1697 23.5977 23.1697C23.597 23.1697 23.5963 23.1697 23.5957 23.1697C23.595 23.1697 23.5943 23.1697 23.5937 23.1697C23.593 23.1697 23.5923 23.1697 23.5917 23.1697C23.591 23.1697 23.5903 23.1697 23.5897 23.1697C23.589 23.1697 23.5883 23.1697 23.5876 23.1697C23.587 23.1697 23.5863 23.1697 23.5856 23.1697C23.585 23.1697 23.5843 23.1697 23.5836 23.1697C23.583 23.1697 23.5823 23.1697 23.5816 23.1697C23.5809 23.1697 23.5803 23.1697 23.5796 23.1697C23.5789 23.1697 23.5783 23.1697 23.5776 23.1697C23.5769 23.1697 23.5762 23.1697 23.5756 23.1697C23.5749 23.1697 23.5742 23.1697 23.5736 23.1697C23.5729 23.1697 23.5722 23.1697 23.5715 23.1697C23.5709 23.1697 23.5702 23.1697 23.5695 23.1697C23.5688 23.1697 23.5682 23.1697 23.5675 23.1697C23.5668 23.1697 23.5662 23.1697 23.5655 23.1697C23.5648 23.1697 23.5641 23.1697 23.5635 23.1697C23.5628 23.1697 23.5621 23.1697 23.5614 23.1697C23.5608 23.1697 23.5601 23.1697 23.5594 23.1697C23.5587 23.1697 23.5581 23.1697 23.5574 23.1697C23.5567 23.1697 23.556 23.1697 23.5554 23.1697C23.5547 23.1697 23.554 23.1697 23.5533 23.1697C23.5527 23.1697 23.552 23.1697 23.5513 23.1697C23.5506 23.1697 23.55 23.1697 23.5493 23.1697C23.5486 23.1697 23.5479 23.1697 23.5473 23.1697C23.5466 23.1697 23.5459 23.1697 23.5452 23.1697C23.5446 23.1697 23.5439 23.1697 23.5432 23.1697C23.5425 23.1697 23.5418 23.1697 23.5412 23.1697C23.5405 23.1697 23.5398 23.1697 23.5391 23.1697C23.5385 23.1697 23.5378 23.1697 23.5371 23.1697C23.5364 23.1697 23.5357 23.1697 23.5351 23.1697C23.5344 23.1697 23.5337 23.1697 23.533 23.1697C23.5324 23.1697 23.5317 23.1697 23.531 23.1697C23.5303 23.1697 23.5296 23.1697 23.529 23.1697C23.5283 23.1697 23.5276 23.1697 23.5269 23.1697C23.5262 23.1697 23.5256 23.1697 23.5249 23.1697C23.5242 23.1697 23.5235 23.1697 23.5228 23.1697C23.5222 23.1697 23.5215 23.1697 23.5208 23.1697C23.5201 23.1697 23.5194 23.1697 23.5187 23.1697C23.5181 23.1697 23.5174 23.1697 23.5167 23.1697C23.516 23.1697 23.5153 23.1697 23.5147 23.1697C23.514 23.1697 23.5133 23.1697 23.5126 23.1697C23.5119 23.1697 23.5113 23.1697 23.5106 23.1697C23.5099 23.1697 23.5092 23.1697 23.5085 23.1697C23.5078 23.1697 23.5072 23.1697 23.5065 23.1697C23.5058 23.1697 23.5051 23.1697 23.5044 23.1697C23.5037 23.1697 23.5031 23.1697 23.5024 23.1697C23.5017 23.1697 23.501 23.1697 23.5003 23.1697C23.4996 23.1697 23.499 23.1697 23.4983 23.1697C23.4976 23.1697 23.4969 23.1697 23.4962 23.1697C23.4955 23.1697 23.4948 23.1697 23.4942 23.1697C23.4935 23.1697 23.4928 23.1697 23.4921 23.1697C23.4914 23.1697 23.4907 23.1697 23.49 23.1697C23.4894 23.1697 23.4887 23.1697 23.488 23.1697C23.4873 23.1697 23.4866 23.1697 23.4859 23.1697C23.4852 23.1697 23.4846 23.1697 23.4839 23.1697C23.4832 23.1697 23.4825 23.1697 23.4818 23.1697C23.4811 23.1697 23.4804 23.1697 23.4797 23.1697C23.4791 23.1697 23.4784 23.1697 23.4777 23.1697C23.477 23.1697 23.4763 23.1697 23.4756 23.1697C23.4749 23.1697 23.4742 23.1697 23.4736 23.1697C23.4729 23.1697 23.4722 23.1697 23.4715 23.1697C23.4708 23.1697 23.4701 23.1697 23.4694 23.1697C23.4687 23.1697 23.468 23.1697 23.4674 23.1697C23.4667 23.1697 23.466 23.1697 23.4653 23.1697C23.4646 23.1697 23.4639 23.1697 23.4632 23.1697C23.4625 23.1697 23.4618 23.1697 23.4611 23.1697C23.4605 23.1697 23.4598 23.1697 23.4591 23.1697C23.4584 23.1697 23.4577 23.1697 23.457 23.1697C23.4563 23.1697 23.4556 23.1697 23.4549 23.1697C23.4542 23.1697 23.4535 23.1697 23.4529 23.1697C23.4522 23.1697 23.4515 23.1697 23.4508 23.1697C23.4501 23.1697 23.4494 23.1697 23.4487 23.1697C23.448 23.1697 23.4473 23.1697 23.4466 23.1697C23.4459 23.1697 23.4452 23.1697 23.4445 23.1697C23.4439 23.1697 23.4432 23.1697 23.4425 23.1697C23.4418 23.1697 23.4411 23.1697 23.4404 23.1697C23.4397 23.1697 23.439 23.1697 23.4383 23.1697C23.4376 23.1697 23.4369 23.1697 23.4362 23.1697C23.4355 23.1697 23.4348 23.1697 23.4341 23.1697C23.4334 23.1697 23.4327 23.1697 23.4321 23.1697C23.4314 23.1697 23.4307 23.1697 23.43 23.1697C23.4293 23.1697 23.4286 23.1697 23.4279 23.1697C23.4272 23.1697 23.4265 23.1697 23.4258 23.1697C23.4251 23.1697 23.4244 23.1697 23.4237 23.1697C23.423 23.1697 23.4223 23.1697 23.4216 23.1697C23.4209 23.1697 23.4202 23.1697 23.4195 23.1697C23.4188 23.1697 23.4181 23.1697 23.4174 23.1697C23.4167 23.1697 23.416 23.1697 23.4153 23.1697C23.4146 23.1697 23.4139 23.1697 23.4132 23.1697C23.4125 23.1697 23.4118 23.1697 23.4112 23.1697C23.4105 23.1697 23.4098 23.1697 23.4091 23.1697C23.4084 23.1697 23.4077 23.1697 23.407 23.1697C23.4063 23.1697 23.4056 23.1697 23.4049 23.1697C23.4042 23.1697 23.4035 23.1697 23.4028 23.1697C23.4021 23.1697 23.4014 23.1697 23.4007 23.1697C23.4 23.1697 23.3993 23.1697 23.3986 23.1697C23.3979 23.1697 23.3972 23.1697 23.3965 23.1697C23.3958 23.1697 23.3951 23.1697 23.3944 23.1697C23.3937 23.1697 23.393 23.1697 23.3923 23.1697C23.3916 23.1697 23.3909 23.1697 23.3902 23.1697C23.3895 23.1697 23.3887 23.1697 23.388 23.1697C23.3873 23.1697 23.3866 23.1697 23.3859 23.1697C23.3852 23.1697 23.3845 23.1697 23.3838 23.1697C23.3831 23.1697 23.3824 23.1697 23.3817 23.1697C23.381 23.1697 23.3803 23.1697 23.3796 23.1697C23.3789 23.1697 23.3782 23.1697 23.3775 23.1697C23.3768 23.1697 23.3761 23.1697 23.3754 23.1697C23.3747 23.1697 23.374 23.1697 23.3733 23.1697C23.3726 23.1697 23.3719 23.1697 23.3712 23.1697C23.3705 23.1697 23.3698 23.1697 23.3691 23.1697C23.3683 23.1697 23.3676 23.1697 23.3669 23.1697C23.3662 23.1697 23.3655 23.1697 23.3648 23.1697C23.3641 23.1697 23.3634 23.1697 23.3627 23.1697C23.362 23.1697 23.3613 23.1697 23.3606 23.1697C23.3599 23.1697 23.3592 23.1697 23.3585 23.1697C23.3578 23.1697 23.3571 23.1697 23.3563 23.1697C23.3556 23.1697 23.3549 23.1697 23.3542 23.1697C23.3535 23.1697 23.3528 23.1697 23.3521 23.1697C23.3514 23.1697 23.3507 23.1697 23.35 23.1697C23.3493 23.1697 23.3486 23.1697 23.3479 23.1697C23.3471 23.1697 23.3464 23.1697 23.3457 23.1697C23.345 23.1697 23.3443 23.1697 23.3436 23.1697C23.3429 23.1697 23.3422 23.1697 23.3415 23.1697C23.3408 23.1697 23.3401 23.1697 23.3393 23.1697C23.3386 23.1697 23.3379 23.1697 23.3372 23.1697C23.3365 23.1697 23.3358 23.1697 23.3351 23.1697C23.3344 23.1697 23.3337 23.1697 23.333 23.1697C23.3322 23.1697 23.3315 23.1697 23.3308 23.1697C23.3301 23.1697 23.3294 23.1697 23.3287 23.1697C23.328 23.1697 23.3273 23.1697 23.3266 23.1697C23.3258 23.1697 23.3251 23.1697 23.3244 23.1697C23.3237 23.1697 23.323 23.1697 23.3223 23.1697C23.3216 23.1697 23.3209 23.1697 23.3201 23.1697C23.3194 23.1697 23.3187 23.1697 23.318 23.1697C23.3173 23.1697 23.3166 23.1697 23.3159 23.1697C23.3152 23.1697 23.3144 23.1697 23.3137 23.1697C23.313 23.1697 23.3123 23.1697 23.3116 23.1697C23.3109 23.1697 23.3102 23.1697 23.3094 23.1697C23.3087 23.1697 23.308 23.1697 23.3073 23.1697C23.3066 23.1697 23.3059 23.1697 23.3052 23.1697C23.3044 23.1697 23.3037 23.1697 23.303 23.1697C23.3023 23.1697 23.3016 23.1697 23.3009 23.1697C23.3002 23.1697 23.2994 23.1697 23.2987 23.1697C23.298 23.1697 23.2973 23.1697 23.2966 23.1697C23.2959 23.1697 23.2951 23.1697 23.2944 23.1697C23.2937 23.1697 23.293 23.1697 23.2923 23.1697C23.2916 23.1697 23.2908 23.1697 23.2901 23.1697C23.2894 23.1697 23.2887 23.1697 23.288 23.1697C23.2873 23.1697 23.2865 23.1697 23.2858 23.1697C23.2851 23.1697 23.2844 23.1697 23.2837 23.1697C23.2829 23.1697 23.2822 23.1697 23.2815 23.1697C23.2808 23.1697 23.2801 23.1697 23.2794 23.1697C23.2786 23.1697 23.2779 23.1697 23.2772 23.1697C23.2765 23.1697 23.2758 23.1697 23.275 23.1697C23.2743 23.1697 23.2736 23.1697 23.2729 23.1697C23.2722 23.1697 23.2714 23.1697 23.2707 23.1697C23.27 23.1697 23.2693 23.1697 23.2686 23.1697C23.2678 23.1697 23.2671 23.1697 23.2664 23.1697C23.2657 23.1697 23.2649 23.1697 23.2642 23.1697C23.2635 23.1697 23.2628 23.1697 23.2621 23.1697C23.2613 23.1697 23.2606 23.1697 23.2599 23.1697C23.2592 23.1697 23.2585 23.1697 23.2577 23.1697C23.257 23.1697 23.2563 23.1697 23.2556 23.1697C23.2548 23.1697 23.2541 23.1697 23.2534 23.1697C23.2527 23.1697 23.252 23.1697 23.2512 23.1697C23.2505 23.1697 23.2498 23.1697 23.2491 23.1697C23.2483 23.1697 23.2476 23.1697 23.2469 23.1697C23.2462 23.1697 23.2454 23.1697 23.2447 23.1697C23.244 23.1697 23.2433 23.1697 23.2425 23.1697C23.2418 23.1697 23.2411 23.1697 23.2404 23.1697C23.2396 23.1697 23.2389 23.1697 23.2382 23.1697C23.2375 23.1697 23.2367 23.1697 23.236 23.1697C23.2353 23.1697 23.2346 23.1697 23.2338 23.1697C23.2331 23.1697 23.2324 23.1697 23.2317 23.1697C23.2309 23.1697 23.2302 23.1697 23.2295 23.1697C23.2288 23.1697 23.228 23.1697 23.2273 23.1697C23.2266 23.1697 23.2259 23.1697 23.2251 23.1697C23.2244 23.1697 23.2237 23.1697 23.2229 23.1697C23.2222 23.1697 23.2215 23.1697 23.2208 23.1697C23.22 23.1697 23.2193 23.1697 23.2186 23.1697C23.2178 23.1697 23.2171 23.1697 23.2164 23.1697C23.2157 23.1697 23.2149 23.1697 23.2142 23.1697C23.2135 23.1697 23.2127 23.1697 23.212 23.1697C23.2113 23.1697 23.2106 23.1697 23.2098 23.1697C23.2091 23.1697 23.2084 23.1697 23.2076 23.1697C23.2069 23.1697 23.2062 23.1697 23.2055 23.1697C23.2047 23.1697 23.204 23.1697 23.2033 23.1697C23.2025 23.1697 23.2018 23.1697 23.2011 23.1697C23.2003 23.1697 23.1996 23.1697 23.1989 23.1697C23.1981 23.1697 23.1974 23.1697 23.1967 23.1697C23.1959 23.1697 23.1952 23.1697 23.1945 23.1697C23.1938 23.1697 23.193 23.1697 23.1923 23.1697C23.1916 23.1697 23.1908 23.1697 23.1901 23.1697C23.1894 23.1697 23.1886 23.1697 23.1879 23.1697C23.1872 23.1697 23.1864 23.1697 23.1857 23.1697C23.185 23.1697 23.1842 23.1697 23.1835 23.1697C23.1828 23.1697 23.182 23.1697 23.1813 23.1697C23.1806 23.1697 23.1798 23.1697 23.1791 23.1697C23.1784 23.1697 23.1776 23.1697 23.1769 23.1697C23.1762 23.1697 23.1754 23.1697 23.1747 23.1697C23.174 23.1697 23.1732 23.1697 23.1725 23.1697V23.6697V24.1697C23.1732 24.1697 23.174 24.1697 23.1747 24.1697C23.1754 24.1697 23.1762 24.1697 23.1769 24.1697C23.1776 24.1697 23.1784 24.1697 23.1791 24.1697C23.1798 24.1697 23.1806 24.1697 23.1813 24.1697C23.182 24.1697 23.1828 24.1697 23.1835 24.1697C23.1842 24.1697 23.185 24.1697 23.1857 24.1697C23.1864 24.1697 23.1872 24.1697 23.1879 24.1697C23.1886 24.1697 23.1894 24.1697 23.1901 24.1697C23.1908 24.1697 23.1916 24.1697 23.1923 24.1697C23.193 24.1697 23.1938 24.1697 23.1945 24.1697C23.1952 24.1697 23.1959 24.1697 23.1967 24.1697C23.1974 24.1697 23.1981 24.1697 23.1989 24.1697C23.1996 24.1697 23.2003 24.1697 23.2011 24.1697C23.2018 24.1697 23.2025 24.1697 23.2033 24.1697C23.204 24.1697 23.2047 24.1697 23.2055 24.1697C23.2062 24.1697 23.2069 24.1697 23.2076 24.1697C23.2084 24.1697 23.2091 24.1697 23.2098 24.1697C23.2106 24.1697 23.2113 24.1697 23.212 24.1697C23.2127 24.1697 23.2135 24.1697 23.2142 24.1697C23.2149 24.1697 23.2157 24.1697 23.2164 24.1697C23.2171 24.1697 23.2178 24.1697 23.2186 24.1697C23.2193 24.1697 23.22 24.1697 23.2208 24.1697C23.2215 24.1697 23.2222 24.1697 23.2229 24.1697C23.2237 24.1697 23.2244 24.1697 23.2251 24.1697C23.2259 24.1697 23.2266 24.1697 23.2273 24.1697C23.228 24.1697 23.2288 24.1697 23.2295 24.1697C23.2302 24.1697 23.2309 24.1697 23.2317 24.1697C23.2324 24.1697 23.2331 24.1697 23.2338 24.1697C23.2346 24.1697 23.2353 24.1697 23.236 24.1697C23.2367 24.1697 23.2375 24.1697 23.2382 24.1697C23.2389 24.1697 23.2396 24.1697 23.2404 24.1697C23.2411 24.1697 23.2418 24.1697 23.2425 24.1697C23.2433 24.1697 23.244 24.1697 23.2447 24.1697C23.2454 24.1697 23.2462 24.1697 23.2469 24.1697C23.2476 24.1697 23.2483 24.1697 23.2491 24.1697C23.2498 24.1697 23.2505 24.1697 23.2512 24.1697C23.252 24.1697 23.2527 24.1697 23.2534 24.1697C23.2541 24.1697 23.2548 24.1697 23.2556 24.1697C23.2563 24.1697 23.257 24.1697 23.2577 24.1697C23.2585 24.1697 23.2592 24.1697 23.2599 24.1697C23.2606 24.1697 23.2613 24.1697 23.2621 24.1697C23.2628 24.1697 23.2635 24.1697 23.2642 24.1697C23.2649 24.1697 23.2657 24.1697 23.2664 24.1697C23.2671 24.1697 23.2678 24.1697 23.2686 24.1697C23.2693 24.1697 23.27 24.1697 23.2707 24.1697C23.2714 24.1697 23.2722 24.1697 23.2729 24.1697C23.2736 24.1697 23.2743 24.1697 23.275 24.1697C23.2758 24.1697 23.2765 24.1697 23.2772 24.1697C23.2779 24.1697 23.2786 24.1697 23.2794 24.1697C23.2801 24.1697 23.2808 24.1697 23.2815 24.1697C23.2822 24.1697 23.2829 24.1697 23.2837 24.1697C23.2844 24.1697 23.2851 24.1697 23.2858 24.1697C23.2865 24.1697 23.2873 24.1697 23.288 24.1697C23.2887 24.1697 23.2894 24.1697 23.2901 24.1697C23.2908 24.1697 23.2916 24.1697 23.2923 24.1697C23.293 24.1697 23.2937 24.1697 23.2944 24.1697C23.2951 24.1697 23.2959 24.1697 23.2966 24.1697C23.2973 24.1697 23.298 24.1697 23.2987 24.1697C23.2994 24.1697 23.3002 24.1697 23.3009 24.1697C23.3016 24.1697 23.3023 24.1697 23.303 24.1697C23.3037 24.1697 23.3044 24.1697 23.3052 24.1697C23.3059 24.1697 23.3066 24.1697 23.3073 24.1697C23.308 24.1697 23.3087 24.1697 23.3094 24.1697C23.3102 24.1697 23.3109 24.1697 23.3116 24.1697C23.3123 24.1697 23.313 24.1697 23.3137 24.1697C23.3144 24.1697 23.3152 24.1697 23.3159 24.1697C23.3166 24.1697 23.3173 24.1697 23.318 24.1697C23.3187 24.1697 23.3194 24.1697 23.3201 24.1697C23.3209 24.1697 23.3216 24.1697 23.3223 24.1697C23.323 24.1697 23.3237 24.1697 23.3244 24.1697C23.3251 24.1697 23.3258 24.1697 23.3266 24.1697C23.3273 24.1697 23.328 24.1697 23.3287 24.1697C23.3294 24.1697 23.3301 24.1697 23.3308 24.1697C23.3315 24.1697 23.3322 24.1697 23.333 24.1697C23.3337 24.1697 23.3344 24.1697 23.3351 24.1697C23.3358 24.1697 23.3365 24.1697 23.3372 24.1697C23.3379 24.1697 23.3386 24.1697 23.3393 24.1697C23.3401 24.1697 23.3408 24.1697 23.3415 24.1697C23.3422 24.1697 23.3429 24.1697 23.3436 24.1697C23.3443 24.1697 23.345 24.1697 23.3457 24.1697C23.3464 24.1697 23.3471 24.1697 23.3479 24.1697C23.3486 24.1697 23.3493 24.1697 23.35 24.1697C23.3507 24.1697 23.3514 24.1697 23.3521 24.1697C23.3528 24.1697 23.3535 24.1697 23.3542 24.1697C23.3549 24.1697 23.3556 24.1697 23.3563 24.1697C23.3571 24.1697 23.3578 24.1697 23.3585 24.1697C23.3592 24.1697 23.3599 24.1697 23.3606 24.1697C23.3613 24.1697 23.362 24.1697 23.3627 24.1697C23.3634 24.1697 23.3641 24.1697 23.3648 24.1697C23.3655 24.1697 23.3662 24.1697 23.3669 24.1697C23.3676 24.1697 23.3683 24.1697 23.3691 24.1697C23.3698 24.1697 23.3705 24.1697 23.3712 24.1697C23.3719 24.1697 23.3726 24.1697 23.3733 24.1697C23.374 24.1697 23.3747 24.1697 23.3754 24.1697C23.3761 24.1697 23.3768 24.1697 23.3775 24.1697C23.3782 24.1697 23.3789 24.1697 23.3796 24.1697C23.3803 24.1697 23.381 24.1697 23.3817 24.1697C23.3824 24.1697 23.3831 24.1697 23.3838 24.1697C23.3845 24.1697 23.3852 24.1697 23.3859 24.1697C23.3866 24.1697 23.3873 24.1697 23.388 24.1697C23.3887 24.1697 23.3895 24.1697 23.3902 24.1697C23.3909 24.1697 23.3916 24.1697 23.3923 24.1697C23.393 24.1697 23.3937 24.1697 23.3944 24.1697C23.3951 24.1697 23.3958 24.1697 23.3965 24.1697C23.3972 24.1697 23.3979 24.1697 23.3986 24.1697C23.3993 24.1697 23.4 24.1697 23.4007 24.1697C23.4014 24.1697 23.4021 24.1697 23.4028 24.1697C23.4035 24.1697 23.4042 24.1697 23.4049 24.1697C23.4056 24.1697 23.4063 24.1697 23.407 24.1697C23.4077 24.1697 23.4084 24.1697 23.4091 24.1697C23.4098 24.1697 23.4105 24.1697 23.4112 24.1697C23.4118 24.1697 23.4125 24.1697 23.4132 24.1697C23.4139 24.1697 23.4146 24.1697 23.4153 24.1697C23.416 24.1697 23.4167 24.1697 23.4174 24.1697C23.4181 24.1697 23.4188 24.1697 23.4195 24.1697C23.4202 24.1697 23.4209 24.1697 23.4216 24.1697C23.4223 24.1697 23.423 24.1697 23.4237 24.1697C23.4244 24.1697 23.4251 24.1697 23.4258 24.1697C23.4265 24.1697 23.4272 24.1697 23.4279 24.1697C23.4286 24.1697 23.4293 24.1697 23.43 24.1697C23.4307 24.1697 23.4314 24.1697 23.4321 24.1697C23.4327 24.1697 23.4334 24.1697 23.4341 24.1697C23.4348 24.1697 23.4355 24.1697 23.4362 24.1697C23.4369 24.1697 23.4376 24.1697 23.4383 24.1697C23.439 24.1697 23.4397 24.1697 23.4404 24.1697C23.4411 24.1697 23.4418 24.1697 23.4425 24.1697C23.4432 24.1697 23.4439 24.1697 23.4445 24.1697C23.4452 24.1697 23.4459 24.1697 23.4466 24.1697C23.4473 24.1697 23.448 24.1697 23.4487 24.1697C23.4494 24.1697 23.4501 24.1697 23.4508 24.1697C23.4515 24.1697 23.4522 24.1697 23.4529 24.1697C23.4535 24.1697 23.4542 24.1697 23.4549 24.1697C23.4556 24.1697 23.4563 24.1697 23.457 24.1697C23.4577 24.1697 23.4584 24.1697 23.4591 24.1697C23.4598 24.1697 23.4605 24.1697 23.4611 24.1697C23.4618 24.1697 23.4625 24.1697 23.4632 24.1697C23.4639 24.1697 23.4646 24.1697 23.4653 24.1697C23.466 24.1697 23.4667 24.1697 23.4674 24.1697C23.468 24.1697 23.4687 24.1697 23.4694 24.1697C23.4701 24.1697 23.4708 24.1697 23.4715 24.1697C23.4722 24.1697 23.4729 24.1697 23.4736 24.1697C23.4742 24.1697 23.4749 24.1697 23.4756 24.1697C23.4763 24.1697 23.477 24.1697 23.4777 24.1697C23.4784 24.1697 23.4791 24.1697 23.4797 24.1697C23.4804 24.1697 23.4811 24.1697 23.4818 24.1697C23.4825 24.1697 23.4832 24.1697 23.4839 24.1697C23.4846 24.1697 23.4852 24.1697 23.4859 24.1697C23.4866 24.1697 23.4873 24.1697 23.488 24.1697C23.4887 24.1697 23.4894 24.1697 23.49 24.1697C23.4907 24.1697 23.4914 24.1697 23.4921 24.1697C23.4928 24.1697 23.4935 24.1697 23.4942 24.1697C23.4948 24.1697 23.4955 24.1697 23.4962 24.1697C23.4969 24.1697 23.4976 24.1697 23.4983 24.1697C23.499 24.1697 23.4996 24.1697 23.5003 24.1697C23.501 24.1697 23.5017 24.1697 23.5024 24.1697C23.5031 24.1697 23.5037 24.1697 23.5044 24.1697C23.5051 24.1697 23.5058 24.1697 23.5065 24.1697C23.5072 24.1697 23.5078 24.1697 23.5085 24.1697C23.5092 24.1697 23.5099 24.1697 23.5106 24.1697C23.5113 24.1697 23.5119 24.1697 23.5126 24.1697C23.5133 24.1697 23.514 24.1697 23.5147 24.1697C23.5153 24.1697 23.516 24.1697 23.5167 24.1697C23.5174 24.1697 23.5181 24.1697 23.5187 24.1697C23.5194 24.1697 23.5201 24.1697 23.5208 24.1697C23.5215 24.1697 23.5222 24.1697 23.5228 24.1697C23.5235 24.1697 23.5242 24.1697 23.5249 24.1697C23.5256 24.1697 23.5262 24.1697 23.5269 24.1697C23.5276 24.1697 23.5283 24.1697 23.529 24.1697C23.5296 24.1697 23.5303 24.1697 23.531 24.1697C23.5317 24.1697 23.5324 24.1697 23.533 24.1697C23.5337 24.1697 23.5344 24.1697 23.5351 24.1697C23.5357 24.1697 23.5364 24.1697 23.5371 24.1697C23.5378 24.1697 23.5385 24.1697 23.5391 24.1697C23.5398 24.1697 23.5405 24.1697 23.5412 24.1697C23.5418 24.1697 23.5425 24.1697 23.5432 24.1697C23.5439 24.1697 23.5446 24.1697 23.5452 24.1697C23.5459 24.1697 23.5466 24.1697 23.5473 24.1697C23.5479 24.1697 23.5486 24.1697 23.5493 24.1697C23.55 24.1697 23.5506 24.1697 23.5513 24.1697C23.552 24.1697 23.5527 24.1697 23.5533 24.1697C23.554 24.1697 23.5547 24.1697 23.5554 24.1697C23.556 24.1697 23.5567 24.1697 23.5574 24.1697C23.5581 24.1697 23.5587 24.1697 23.5594 24.1697C23.5601 24.1697 23.5608 24.1697 23.5614 24.1697C23.5621 24.1697 23.5628 24.1697 23.5635 24.1697C23.5641 24.1697 23.5648 24.1697 23.5655 24.1697C23.5662 24.1697 23.5668 24.1697 23.5675 24.1697C23.5682 24.1697 23.5688 24.1697 23.5695 24.1697C23.5702 24.1697 23.5709 24.1697 23.5715 24.1697C23.5722 24.1697 23.5729 24.1697 23.5736 24.1697C23.5742 24.1697 23.5749 24.1697 23.5756 24.1697C23.5762 24.1697 23.5769 24.1697 23.5776 24.1697C23.5783 24.1697 23.5789 24.1697 23.5796 24.1697C23.5803 24.1697 23.5809 24.1697 23.5816 24.1697C23.5823 24.1697 23.583 24.1697 23.5836 24.1697C23.5843 24.1697 23.585 24.1697 23.5856 24.1697C23.5863 24.1697 23.587 24.1697 23.5876 24.1697C23.5883 24.1697 23.589 24.1697 23.5897 24.1697C23.5903 24.1697 23.591 24.1697 23.5917 24.1697C23.5923 24.1697 23.593 24.1697 23.5937 24.1697C23.5943 24.1697 23.595 24.1697 23.5957 24.1697C23.5963 24.1697 23.597 24.1697 23.5977 24.1697C23.5984 24.1697 23.599 24.1697 23.5997 24.1697C23.6004 24.1697 23.601 24.1697 23.6017 24.1697C23.6024 24.1697 23.603 24.1697 23.6037 24.1697C23.6044 24.1697 23.605 24.1697 23.6057 24.1697C23.6064 24.1697 23.607 24.1697 23.6077 24.1697C23.6084 24.1697 23.609 24.1697 23.6097 24.1697C23.6104 24.1697 23.611 24.1697 23.6117 24.1697C23.6124 24.1697 23.613 24.1697 23.6137 24.1697C23.6144 24.1697 23.615 24.1697 23.6157 24.1697C23.6164 24.1697 23.617 24.1697 23.6177 24.1697C23.6183 24.1697 23.619 24.1697 23.6197 24.1697C23.6203 24.1697 23.621 24.1697 23.6217 24.1697C23.6223 24.1697 23.623 24.1697 23.6237 24.1697C23.6243 24.1697 23.625 24.1697 23.6257 24.1697C23.6263 24.1697 23.627 24.1697 23.6276 24.1697C23.6283 24.1697 23.629 24.1697 23.6296 24.1697C23.6303 24.1697 23.631 24.1697 23.6316 24.1697C23.6323 24.1697 23.6329 24.1697 23.6336 24.1697C23.6343 24.1697 23.6349 24.1697 23.6356 24.1697C23.6363 24.1697 23.6369 24.1697 23.6376 24.1697C23.6382 24.1697 23.6389 24.1697 23.6396 24.1697C23.6402 24.1697 23.6409 24.1697 23.6415 24.1697C23.6422 24.1697 23.6429 24.1697 23.6435 24.1697C23.6442 24.1697 23.6448 24.1697 23.6455 24.1697C23.6462 24.1697 23.6468 24.1697 23.6475 24.1697C23.6481 24.1697 23.6488 24.1697 23.6495 24.1697C23.6501 24.1697 23.6508 24.1697 23.6514 24.1697C23.6521 24.1697 23.6528 24.1697 23.6534 24.1697C23.6541 24.1697 23.6547 24.1697 23.6554 24.1697C23.6561 24.1697 23.6567 24.1697 23.6574 24.1697C23.658 24.1697 23.6587 24.1697 23.6593 24.1697C23.66 24.1697 23.6607 24.1697 23.6613 24.1697C23.662 24.1697 23.6626 24.1697 23.6633 24.1697C23.6639 24.1697 23.6646 24.1697 23.6653 24.1697C23.6659 24.1697 23.6666 24.1697 23.6672 24.1697C23.6679 24.1697 23.6685 24.1697 23.6692 24.1697C23.6699 24.1697 23.6705 24.1697 23.6712 24.1697C23.6718 24.1697 23.6725 24.1697 23.6731 24.1697C23.6738 24.1697 23.6744 24.1697 23.6751 24.1697C23.6758 24.1697 23.6764 24.1697 23.6771 24.1697C23.6777 24.1697 23.6784 24.1697 23.679 24.1697C23.6797 24.1697 23.6803 24.1697 23.681 24.1697C23.6817 24.1697 23.6823 24.1697 23.683 24.1697C23.6836 24.1697 23.6843 24.1697 23.6849 24.1697C23.6856 24.1697 23.6862 24.1697 23.6869 24.1697C23.6875 24.1697 23.6882 24.1697 23.6888 24.1697C23.6895 24.1697 23.6901 24.1697 23.6908 24.1697C23.6915 24.1697 23.6921 24.1697 23.6928 24.1697C23.6934 24.1697 23.6941 24.1697 23.6947 24.1697C23.6954 24.1697 23.696 24.1697 23.6967 24.1697C23.6973 24.1697 23.698 24.1697 23.6986 24.1697C23.6993 24.1697 23.6999 24.1697 23.7006 24.1697C23.7012 24.1697 23.7019 24.1697 23.7025 24.1697C23.7032 24.1697 23.7038 24.1697 23.7045 24.1697C23.7051 24.1697 23.7058 24.1697 23.7064 24.1697C23.7071 24.1697 23.7077 24.1697 23.7084 24.1697C23.709 24.1697 23.7097 24.1697 23.7103 24.1697C23.711 24.1697 23.7116 24.1697 23.7123 24.1697C23.7129 24.1697 23.7136 24.1697 23.7142 24.1697C23.7149 24.1697 23.7155 24.1697 23.7162 24.1697C23.7168 24.1697 23.7175 24.1697 23.7181 24.1697C23.7188 24.1697 23.7194 24.1697 23.7201 24.1697C23.7207 24.1697 23.7214 24.1697 23.722 24.1697C23.7226 24.1697 23.7233 24.1697 23.7239 24.1697C23.7246 24.1697 23.7252 24.1697 23.7259 24.1697C23.7265 24.1697 23.7272 24.1697 23.7278 24.1697C23.7285 24.1697 23.7291 24.1697 23.7298 24.1697C23.7304 24.1697 23.7311 24.1697 23.7317 24.1697C23.7323 24.1697 23.733 24.1697 23.7336 24.1697C23.7343 24.1697 23.7349 24.1697 23.7356 24.1697C23.7362 24.1697 23.7369 24.1697 23.7375 24.1697C23.7381 24.1697 23.7388 24.1697 23.7394 24.1697C23.7401 24.1697 23.7407 24.1697 23.7414 24.1697C23.742 24.1697 23.7427 24.1697 23.7433 24.1697C23.7439 24.1697 23.7446 24.1697 23.7452 24.1697C23.7459 24.1697 23.7465 24.1697 23.7472 24.1697C23.7478 24.1697 23.7484 24.1697 23.7491 24.1697C23.7497 24.1697 23.7504 24.1697 23.751 24.1697C23.7517 24.1697 23.7523 24.1697 23.7529 24.1697C23.7536 24.1697 23.7542 24.1697 23.7549 24.1697C23.7555 24.1697 23.7562 24.1697 23.7568 24.1697C23.7574 24.1697 23.7581 24.1697 23.7587 24.1697C23.7594 24.1697 23.76 24.1697 23.7606 24.1697C23.7613 24.1697 23.7619 24.1697 23.7626 24.1697C23.7632 24.1697 23.7638 24.1697 23.7645 24.1697C23.7651 24.1697 23.7658 24.1697 23.7664 24.1697C23.767 24.1697 23.7677 24.1697 23.7683 24.1697C23.769 24.1697 23.7696 24.1697 23.7702 24.1697C23.7709 24.1697 23.7715 24.1697 23.7722 24.1697C23.7728 24.1697 23.7734 24.1697 23.7741 24.1697C23.7747 24.1697 23.7753 24.1697 23.776 24.1697C23.7766 24.1697 23.7773 24.1697 23.7779 24.1697C23.7785 24.1697 23.7792 24.1697 23.7798 24.1697C23.7804 24.1697 23.7811 24.1697 23.7817 24.1697C23.7824 24.1697 23.783 24.1697 23.7836 24.1697C23.7843 24.1697 23.7849 24.1697 23.7855 24.1697C23.7862 24.1697 23.7868 24.1697 23.7875 24.1697C23.7881 24.1697 23.7887 24.1697 23.7894 24.1697C23.79 24.1697 23.7906 24.1697 23.7913 24.1697C23.7919 24.1697 23.7925 24.1697 23.7932 24.1697C23.7938 24.1697 23.7944 24.1697 23.7951 24.1697C23.7957 24.1697 23.7963 24.1697 23.797 24.1697C23.7976 24.1697 23.7982 24.1697 23.7989 24.1697C23.7995 24.1697 23.8001 24.1697 23.8008 24.1697C23.8014 24.1697 23.8021 24.1697 23.8027 24.1697C23.8033 24.1697 23.804 24.1697 23.8046 24.1697C23.8052 24.1697 23.8058 24.1697 23.8065 24.1697C23.8071 24.1697 23.8077 24.1697 23.8084 24.1697C23.809 24.1697 23.8096 24.1697 23.8103 24.1697C23.8109 24.1697 23.8115 24.1697 23.8122 24.1697C23.8128 24.1697 23.8134 24.1697 23.8141 24.1697C23.8147 24.1697 23.8153 24.1697 23.816 24.1697C23.8166 24.1697 23.8172 24.1697 23.8179 24.1697C23.8185 24.1697 23.8191 24.1697 23.8197 24.1697C23.8204 24.1697 23.821 24.1697 23.8216 24.1697C23.8223 24.1697 23.8229 24.1697 23.8235 24.1697C23.8242 24.1697 23.8248 24.1697 23.8254 24.1697C23.826 24.1697 23.8267 24.1697 23.8273 24.1697C23.8279 24.1697 23.8286 24.1697 23.8292 24.1697C23.8298 24.1697 23.8304 24.1697 23.8311 24.1697C23.8317 24.1697 23.8323 24.1697 23.833 24.1697C23.8336 24.1697 23.8342 24.1697 23.8348 24.1697C23.8355 24.1697 23.8361 24.1697 23.8367 24.1697C23.8374 24.1697 23.838 24.1697 23.8386 24.1697C23.8392 24.1697 23.8399 24.1697 23.8405 24.1697C23.8411 24.1697 23.8417 24.1697 23.8424 24.1697C23.843 24.1697 23.8436 24.1697 23.8442 24.1697C23.8449 24.1697 23.8455 24.1697 23.8461 24.1697C23.8468 24.1697 23.8474 24.1697 23.848 24.1697C23.8486 24.1697 23.8493 24.1697 23.8499 24.1697C23.8505 24.1697 23.8511 24.1697 23.8518 24.1697C23.8524 24.1697 23.853 24.1697 23.8536 24.1697C23.8543 24.1697 23.8549 24.1697 23.8555 24.1697C23.8561 24.1697 23.8567 24.1697 23.8574 24.1697C23.858 24.1697 23.8586 24.1697 23.8592 24.1697C23.8599 24.1697 23.8605 24.1697 23.8611 24.1697C23.8617 24.1697 23.8624 24.1697 23.863 24.1697C23.8636 24.1697 23.8642 24.1697 23.8648 24.1697C23.8655 24.1697 23.8661 24.1697 23.8667 24.1697C23.8673 24.1697 23.868 24.1697 23.8686 24.1697C23.8692 24.1697 23.8698 24.1697 23.8704 24.1697C23.8711 24.1697 23.8717 24.1697 23.8723 24.1697C23.8729 24.1697 23.8736 24.1697 23.8742 24.1697C23.8748 24.1697 23.8754 24.1697 23.876 24.1697C23.8767 24.1697 23.8773 24.1697 23.8779 24.1697C23.8785 24.1697 23.8791 24.1697 23.8798 24.1697C23.8804 24.1697 23.881 24.1697 23.8816 24.1697C23.8822 24.1697 23.8829 24.1697 23.8835 24.1697C23.8841 24.1697 23.8847 24.1697 23.8853 24.1697C23.886 24.1697 23.8866 24.1697 23.8872 24.1697C23.8878 24.1697 23.8884 24.1697 23.889 24.1697C23.8897 24.1697 23.8903 24.1697 23.8909 24.1697C23.8915 24.1697 23.8921 24.1697 23.8927 24.1697C23.8934 24.1697 23.894 24.1697 23.8946 24.1697C23.8952 24.1697 23.8958 24.1697 23.8965 24.1697C23.8971 24.1697 23.8977 24.1697 23.8983 24.1697C23.8989 24.1697 23.8995 24.1697 23.9002 24.1697C23.9008 24.1697 23.9014 24.1697 23.902 24.1697C23.9026 24.1697 23.9032 24.1697 23.9038 24.1697C23.9045 24.1697 23.9051 24.1697 23.9057 24.1697C23.9063 24.1697 23.9069 24.1697 23.9075 24.1697C23.9082 24.1697 23.9088 24.1697 23.9094 24.1697C23.91 24.1697 23.9106 24.1697 23.9112 24.1697C23.9118 24.1697 23.9125 24.1697 23.9131 24.1697C23.9137 24.1697 23.9143 24.1697 23.9149 24.1697C23.9155 24.1697 23.9161 24.1697 23.9167 24.1697C23.9174 24.1697 23.918 24.1697 23.9186 24.1697C23.9192 24.1697 23.9198 24.1697 23.9204 24.1697C23.921 24.1697 23.9216 24.1697 23.9223 24.1697C23.9229 24.1697 23.9235 24.1697 23.9241 24.1697C23.9247 24.1697 23.9253 24.1697 23.9259 24.1697C23.9265 24.1697 23.9272 24.1697 23.9278 24.1697C23.9284 24.1697 23.929 24.1697 23.9296 24.1697C23.9302 24.1697 23.9308 24.1697 23.9314 24.1697C23.932 24.1697 23.9327 24.1697 23.9333 24.1697C23.9339 24.1697 23.9345 24.1697 23.9351 24.1697C23.9357 24.1697 23.9363 24.1697 23.9369 24.1697C23.9375 24.1697 23.9381 24.1697 23.9387 24.1697C23.9394 24.1697 23.94 24.1697 23.9406 24.1697C23.9412 24.1697 23.9418 24.1697 23.9424 24.1697C23.943 24.1697 23.9436 24.1697 23.9442 24.1697C23.9448 24.1697 23.9454 24.1697 23.9461 24.1697C23.9467 24.1697 23.9473 24.1697 23.9479 24.1697C23.9485 24.1697 23.9491 24.1697 23.9497 24.1697C23.9503 24.1697 23.9509 24.1697 23.9515 24.1697C23.9521 24.1697 23.9527 24.1697 23.9533 24.1697C23.9539 24.1697 23.9546 24.1697 23.9552 24.1697C23.9558 24.1697 23.9564 24.1697 23.957 24.1697C23.9576 24.1697 23.9582 24.1697 23.9588 24.1697C23.9594 24.1697 23.96 24.1697 23.9606 24.1697C23.9612 24.1697 23.9618 24.1697 23.9624 24.1697C23.963 24.1697 23.9636 24.1697 23.9642 24.1697C23.9648 24.1697 23.9654 24.1697 23.9661 24.1697C23.9667 24.1697 23.9673 24.1697 23.9679 24.1697C23.9685 24.1697 23.9691 24.1697 23.9697 24.1697C23.9703 24.1697 23.9709 24.1697 23.9715 24.1697C23.9721 24.1697 23.9727 24.1697 23.9733 24.1697C23.9739 24.1697 23.9745 24.1697 23.9751 24.1697C23.9757 24.1697 23.9763 24.1697 23.9769 24.1697C23.9775 24.1697 23.9781 24.1697 23.9787 24.1697C23.9793 24.1697 23.9799 24.1697 23.9805 24.1697C23.9811 24.1697 23.9817 24.1697 23.9823 24.1697C23.9829 24.1697 23.9835 24.1697 23.9841 24.1697C23.9847 24.1697 23.9853 24.1697 23.9859 24.1697C23.9865 24.1697 23.9871 24.1697 23.9877 24.1697C23.9883 24.1697 23.9889 24.1697 23.9895 24.1697C23.9901 24.1697 23.9907 24.1697 23.9913 24.1697C23.9919 24.1697 23.9925 24.1697 23.9931 24.1697C23.9937 24.1697 23.9943 24.1697 23.9949 24.1697C23.9955 24.1697 23.9961 24.1697 23.9967 24.1697C23.9973 24.1697 23.9979 24.1697 23.9985 24.1697C23.9991 24.1697 23.9997 24.1697 24.0003 24.1697C24.0009 24.1697 24.0015 24.1697 24.0021 24.1697C24.0027 24.1697 24.0033 24.1697 24.0039 24.1697C24.0045 24.1697 24.0051 24.1697 24.0057 24.1697C24.0063 24.1697 24.0069 24.1697 24.0075 24.1697C24.0081 24.1697 24.0087 24.1697 24.0093 24.1697C24.0099 24.1697 24.0105 24.1697 24.0111 24.1697C24.0117 24.1697 24.0123 24.1697 24.0128 24.1697C24.0134 24.1697 24.014 24.1697 24.0146 24.1697C24.0152 24.1697 24.0158 24.1697 24.0164 24.1697C24.017 24.1697 24.0176 24.1697 24.0182 24.1697C24.0188 24.1697 24.0194 24.1697 24.02 24.1697C24.0206 24.1697 24.0212 24.1697 24.0218 24.1697C24.0224 24.1697 24.023 24.1697 24.0236 24.1697C24.0241 24.1697 24.0247 24.1697 24.0253 24.1697C24.0259 24.1697 24.0265 24.1697 24.0271 24.1697C24.0277 24.1697 24.0283 24.1697 24.0289 24.1697C24.0295 24.1697 24.0301 24.1697 24.0307 24.1697C24.0313 24.1697 24.0319 24.1697 24.0324 24.1697C24.033 24.1697 24.0336 24.1697 24.0342 24.1697C24.0348 24.1697 24.0354 24.1697 24.036 24.1697C24.0366 24.1697 24.0372 24.1697 24.0378 24.1697C24.0384 24.1697 24.0389 24.1697 24.0395 24.1697C24.0401 24.1697 24.0407 24.1697 24.0413 24.1697C24.0419 24.1697 24.0425 24.1697 24.0431 24.1697C24.0437 24.1697 24.0443 24.1697 24.0449 24.1697C24.0454 24.1697 24.046 24.1697 24.0466 24.1697C24.0472 24.1697 24.0478 24.1697 24.0484 24.1697C24.049 24.1697 24.0496 24.1697 24.0502 24.1697C24.0507 24.1697 24.0513 24.1697 24.0519 24.1697C24.0525 24.1697 24.0531 24.1697 24.0537 24.1697C24.0543 24.1697 24.0549 24.1697 24.0554 24.1697C24.056 24.1697 24.0566 24.1697 24.0572 24.1697C24.0578 24.1697 24.0584 24.1697 24.059 24.1697C24.0596 24.1697 24.0601 24.1697 24.0607 24.1697C24.0613 24.1697 24.0619 24.1697 24.0625 24.1697C24.0631 24.1697 24.0637 24.1697 24.0642 24.1697C24.0648 24.1697 24.0654 24.1697 24.066 24.1697C24.0666 24.1697 24.0672 24.1697 24.0678 24.1697C24.0683 24.1697 24.0689 24.1697 24.0695 24.1697C24.0701 24.1697 24.0707 24.1697 24.0713 24.1697C24.0719 24.1697 24.0724 24.1697 24.073 24.1697C24.0736 24.1697 24.0742 24.1697 24.0748 24.1697C24.0754 24.1697 24.0759 24.1697 24.0765 24.1697C24.0771 24.1697 24.0777 24.1697 24.0783 24.1697C24.0789 24.1697 24.0794 24.1697 24.08 24.1697C24.0806 24.1697 24.0812 24.1697 24.0818 24.1697C24.0824 24.1697 24.0829 24.1697 24.0835 24.1697C24.0841 24.1697 24.0847 24.1697 24.0853 24.1697C24.0859 24.1697 24.0864 24.1697 24.087 24.1697C24.0876 24.1697 24.0882 24.1697 24.0888 24.1697C24.0893 24.1697 24.0899 24.1697 24.0905 24.1697C24.0911 24.1697 24.0917 24.1697 24.0923 24.1697C24.0928 24.1697 24.0934 24.1697 24.094 24.1697C24.0946 24.1697 24.0952 24.1697 24.0957 24.1697C24.0963 24.1697 24.0969 24.1697 24.0975 24.1697C24.0981 24.1697 24.0986 24.1697 24.0992 24.1697C24.0998 24.1697 24.1004 24.1697 24.1009 24.1697C24.1015 24.1697 24.1021 24.1697 24.1027 24.1697C24.1033 24.1697 24.1038 24.1697 24.1044 24.1697C24.105 24.1697 24.1056 24.1697 24.1062 24.1697C24.1067 24.1697 24.1073 24.1697 24.1079 24.1697C24.1085 24.1697 24.109 24.1697 24.1096 24.1697C24.1102 24.1697 24.1108 24.1697 24.1114 24.1697C24.1119 24.1697 24.1125 24.1697 24.1131 24.1697C24.1137 24.1697 24.1142 24.1697 24.1148 24.1697C24.1154 24.1697 24.116 24.1697 24.1165 24.1697C24.1171 24.1697 24.1177 24.1697 24.1183 24.1697C24.1188 24.1697 24.1194 24.1697 24.12 24.1697C24.1206 24.1697 24.1211 24.1697 24.1217 24.1697C24.1223 24.1697 24.1229 24.1697 24.1234 24.1697C24.124 24.1697 24.1246 24.1697 24.1252 24.1697C24.1257 24.1697 24.1263 24.1697 24.1269 24.1697C24.1275 24.1697 24.128 24.1697 24.1286 24.1697C24.1292 24.1697 24.1298 24.1697 24.1303 24.1697C24.1309 24.1697 24.1315 24.1697 24.1321 24.1697C24.1326 24.1697 24.1332 24.1697 24.1338 24.1697C24.1343 24.1697 24.1349 24.1697 24.1355 24.1697C24.1361 24.1697 24.1366 24.1697 24.1372 24.1697C24.1378 24.1697 24.1384 24.1697 24.1389 24.1697C24.1395 24.1697 24.1401 24.1697 24.1406 24.1697C24.1412 24.1697 24.1418 24.1697 24.1424 24.1697C24.1429 24.1697 24.1435 24.1697 24.1441 24.1697C24.1446 24.1697 24.1452 24.1697 24.1458 24.1697C24.1464 24.1697 24.1469 24.1697 24.1475 24.1697C24.1481 24.1697 24.1486 24.1697 24.1492 24.1697C24.1498 24.1697 24.1503 24.1697 24.1509 24.1697C24.1515 24.1697 24.152 24.1697 24.1526 24.1697C24.1532 24.1697 24.1538 24.1697 24.1543 24.1697C24.1549 24.1697 24.1555 24.1697 24.156 24.1697C24.1566 24.1697 24.1572 24.1697 24.1577 24.1697C24.1583 24.1697 24.1589 24.1697 24.1594 24.1697C24.16 24.1697 24.1606 24.1697 24.1611 24.1697C24.1617 24.1697 24.1623 24.1697 24.1628 24.1697C24.1634 24.1697 24.164 24.1697 24.1645 24.1697C24.1651 24.1697 24.1657 24.1697 24.1662 24.1697C24.1668 24.1697 24.1674 24.1697 24.1679 24.1697C24.1685 24.1697 24.1691 24.1697 24.1696 24.1697C24.1702 24.1697 24.1708 24.1697 24.1713 24.1697V23.6697ZM23.1725 23.6697L23.2108 23.1712C22.8316 23.142 22.4094 23.1129 21.9442 23.0838L21.9131 23.5829L21.8819 24.0819C22.3432 24.1107 22.7606 24.1395 23.1341 24.1682L23.1725 23.6697ZM21.9131 23.5829L22.0111 23.0926C22.0663 23.1036 22.0781 23.1277 22.0495 23.099C22.0212 23.0707 21.975 23.0121 21.9158 22.9058L21.4788 23.1486L21.0417 23.3914C21.1273 23.5456 21.2259 23.6897 21.3424 23.8061C21.4584 23.9222 21.6151 24.0332 21.815 24.0731L21.9131 23.5829ZM21.4788 23.1486L21.9357 22.9455C21.8375 22.7246 21.8051 22.564 21.8051 22.4537H21.3051H20.8051C20.8051 22.7487 20.8884 23.0514 21.0219 23.3516L21.4788 23.1486ZM21.3051 22.4537H21.8051C21.8051 22.4982 21.7927 22.5477 21.7664 22.5915C21.7421 22.632 21.7166 22.65 21.7127 22.6526L21.4353 22.2366L21.158 21.8205C20.9643 21.9497 20.8051 22.1643 20.8051 22.4537H21.3051ZM21.4353 22.2366L21.7127 22.6526C21.7914 22.6002 21.8444 22.5693 21.8761 22.5535L21.6525 22.1063L21.4289 21.6591C21.3447 21.7011 21.253 21.7572 21.158 21.8205L21.4353 22.2366ZM21.6525 22.1063L21.8639 22.5594C22.2977 22.357 22.7024 22.1691 23.078 21.9957L22.8685 21.5417L22.659 21.0877C22.2818 21.2618 21.8759 21.4503 21.441 21.6532L21.6525 22.1063ZM22.8685 21.5417L23.0654 22.0013C23.4721 21.827 23.9075 21.6383 24.3717 21.4352L24.1713 20.9771L23.9709 20.5191C23.5087 20.7213 23.0756 20.909 22.6715 21.0821L22.8685 21.5417ZM24.1713 20.9771L24.6712 20.9892C24.7281 18.6282 25.0976 16.6833 25.7601 15.1375L25.3005 14.9406L24.8409 14.7436C24.1137 16.4405 23.7304 18.52 23.6715 20.9651L24.1713 20.9771ZM25.3005 14.9406L25.757 15.1444C26.4587 13.5727 27.3183 12.3472 28.3259 11.4486L27.9931 11.0754L27.6602 10.7023C26.5253 11.7145 25.5899 13.0658 24.8439 14.7367L25.3005 14.9406ZM27.9931 11.0754L28.3314 11.4436C29.3597 10.4986 30.4302 9.84369 31.5421 9.46403L31.3805 8.99086L31.2189 8.51768C29.9567 8.94869 28.7689 9.68344 27.6547 10.7073L27.9931 11.0754ZM31.3805 8.99086L31.5486 9.46173C32.7231 9.04229 33.7948 8.83943 34.7679 8.83943V8.33943V7.83943C33.6565 7.83943 32.4699 8.07085 31.2123 8.51999L31.3805 8.99086ZM34.7679 8.33943V8.83943C36.5941 8.83943 37.8184 9.11475 38.5328 9.5828L38.8068 9.16457L39.0808 8.74634C38.1159 8.1142 36.6476 7.83943 34.7679 7.83943V8.33943ZM38.8068 9.16457L38.5495 9.59332C39.2674 10.0241 39.6096 10.6285 39.6096 11.4663H40.1096H40.6096C40.6096 10.2774 40.0833 9.34737 39.064 8.73582L38.8068 9.16457ZM40.1096 11.4663H39.6096C39.6096 12.0304 39.4816 12.4181 39.279 12.6814L39.6753 12.9863L40.0717 13.2911C40.4481 12.8017 40.6096 12.1761 40.6096 11.4663H40.1096ZM39.6753 12.9863L39.2912 12.6662C39.1058 12.8887 38.8615 13.0074 38.5028 13.0074V13.5074V14.0074C39.1285 14.0074 39.6658 13.7788 40.0594 13.3064L39.6753 12.9863ZM38.5028 13.5074V13.0074C38.3802 13.0074 38.2246 12.9616 38.028 12.8088L37.7211 13.2034L37.4141 13.5981C37.7386 13.8505 38.1042 14.0074 38.5028 14.0074V13.5074ZM37.7211 13.2034L38.0746 12.8499C37.8568 12.6321 37.6066 12.3546 37.3234 12.0148L36.9393 12.3349L36.5552 12.655C36.8511 13.01 37.122 13.3115 37.3675 13.557L37.7211 13.2034ZM36.9393 12.3349L37.2929 11.9813C36.8079 11.4963 36.2371 11.0164 35.5831 10.5408L35.2891 10.9451L34.995 11.3495C35.6149 11.8004 36.1443 12.2469 36.5858 12.6884L36.9393 12.3349ZM35.2891 10.9451L35.5921 10.5474C34.8772 10.0027 33.981 9.75028 32.9439 9.75028V10.2503V10.7503C33.8177 10.7503 34.4849 10.9611 34.986 11.3429L35.2891 10.9451ZM32.9439 10.2503V9.75028C31.5497 9.75028 30.4297 10.3787 29.6199 11.5772L30.0342 11.8571L30.4485 12.1371C31.0863 11.1931 31.9061 10.7503 32.9439 10.7503V10.2503ZM30.0342 11.8571L29.6147 11.585C28.8406 12.7784 28.4919 14.5614 28.4919 16.8514H28.9919H29.4919C29.4919 14.6249 29.8381 13.0783 30.4537 12.1292L30.0342 11.8571ZM28.9919 16.8514H28.4919V20.5429H28.9919H29.4919V16.8514H28.9919ZM28.9919 20.5429H28.4919C28.4919 20.8359 28.5785 21.1618 28.8656 21.3771L29.1656 20.9771L29.4656 20.5771C29.4746 20.5839 29.4829 20.5922 29.4896 20.6011C29.4962 20.6099 29.499 20.6163 29.4996 20.6177C29.5002 20.6192 29.4919 20.5987 29.4919 20.5429H28.9919ZM29.1656 20.9771L28.942 21.4244C29.1468 21.5268 29.3739 21.564 29.5999 21.564V21.064V20.564C29.4785 20.564 29.4161 20.5433 29.3892 20.5299L29.1656 20.9771ZM29.5999 21.064V21.564H34.6811V21.064V20.564H29.5999V21.064ZM34.6811 21.064V21.564C34.7223 21.564 34.7405 21.5711 34.7456 21.5735C34.7494 21.5752 34.7565 21.5787 34.7683 21.5935L35.1588 21.2811L35.5492 20.9688C35.3288 20.6933 35.0194 20.564 34.6811 20.564V21.064ZM35.1588 21.2811L34.8052 21.6347C34.8211 21.6506 34.8325 21.6654 34.8325 21.7154H35.3325H35.8325C35.8325 21.418 35.728 21.1433 35.5123 20.9276L35.1588 21.2811ZM35.3325 21.7154H34.8325C34.8325 21.9066 34.8084 22.1335 34.7553 22.3991L35.2456 22.4971L35.7359 22.5952C35.7986 22.2817 35.8325 21.9875 35.8325 21.7154H35.3325ZM35.2456 22.4971L34.7575 22.3887C34.7095 22.605 34.6425 22.761 34.569 22.8712L34.9851 23.1486L35.4011 23.4259C35.5592 23.1887 35.666 22.9104 35.7337 22.6056L35.2456 22.4971ZM34.9851 23.1486L34.5378 22.925C34.5161 22.9685 34.4973 23.0006 34.4822 23.0232C34.4747 23.0344 34.4687 23.0424 34.4643 23.0479C34.4599 23.0535 34.4576 23.0557 34.4578 23.0556C34.4579 23.0555 34.4612 23.0522 34.4679 23.0471C34.4747 23.0421 34.4856 23.0347 34.5009 23.0271C34.5331 23.011 34.5802 22.996 34.6376 22.996V23.496V23.996C34.8749 23.996 35.0525 23.8751 35.1649 23.7627C35.2763 23.6513 35.3626 23.5115 35.4323 23.3722L34.9851 23.1486ZM34.6376 23.496V22.996H30.2948V23.496V23.996H34.6376V23.496ZM30.2948 23.496V22.996C30.0143 22.996 29.7602 23.0152 29.5414 23.0608C29.3287 23.1051 29.1082 23.1826 28.9324 23.329L29.2525 23.7131L29.5726 24.0973C29.5705 24.099 29.6106 24.0678 29.7453 24.0398C29.8739 24.013 30.0541 23.996 30.2948 23.996V23.496ZM29.2525 23.7131L28.9751 23.2971C28.5999 23.5473 28.4919 23.9713 28.4919 24.3646H28.9919H29.4919C29.4919 24.2474 29.5084 24.1809 29.5213 24.1486C29.5318 24.1222 29.5371 24.1243 29.5298 24.1292L29.2525 23.7131ZM28.9919 24.3646H28.4919V35.4823H28.9919H29.4919V24.3646H28.9919ZM28.9919 35.4823H28.4919C28.4919 36.2502 28.6837 36.9203 29.1752 37.3709L29.5131 37.0023L29.8509 36.6337C29.6476 36.4473 29.4919 36.104 29.4919 35.4823H28.9919ZM29.5131 37.0023L29.193 37.3864C29.4405 37.5927 29.7918 37.7503 30.1963 37.8801C30.6104 38.0129 31.124 38.1299 31.7306 38.2334L31.8148 37.7406L31.8989 37.2477C31.3185 37.1486 30.8549 37.0412 30.5018 36.9279C30.1391 36.8116 29.933 36.7014 29.8331 36.6182L29.5131 37.0023ZM31.8148 37.7406L31.7212 38.2317C31.9823 38.2815 32.1143 38.3518 32.1734 38.4025C32.213 38.4364 32.2268 38.4635 32.2268 38.5223H32.7268H33.2268C33.2268 38.1757 33.0886 37.8699 32.8242 37.6432C32.5793 37.4333 32.2553 37.3155 31.9083 37.2494L31.8148 37.7406ZM32.7268 38.5223H32.2268C32.2268 38.5308 32.2259 38.5351 32.2256 38.5363C32.2254 38.5374 32.2253 38.5375 32.2253 38.5375C32.2252 38.5376 32.2242 38.5398 32.2205 38.5442C32.2168 38.5487 32.2096 38.5562 32.1973 38.5661L32.5096 38.9566L32.822 39.347C33.0762 39.1436 33.2268 38.8593 33.2268 38.5223H32.7268ZM32.5096 38.9566L32.1973 38.5661C32.1614 38.5948 32.0921 38.6303 31.9451 38.6303V39.1303V39.6303C32.2612 39.6303 32.5683 39.5499 32.822 39.347L32.5096 38.9566ZM31.9451 39.1303V38.6303C31.0931 38.6303 30.1962 38.5877 29.2543 38.5021L29.2091 39L29.1638 39.4979C30.1327 39.586 31.0599 39.6303 31.9451 39.6303V39.1303ZM29.2091 39L29.2393 38.5009C28.2764 38.4426 27.4119 38.4131 26.6468 38.4131V38.9131V39.4131C27.3872 39.4131 28.2309 39.4416 29.1788 39.4991L29.2091 39ZM26.6468 38.9131V38.4131C26.1449 38.4131 25.6705 38.4279 25.2238 38.4577L25.2571 38.9566L25.2903 39.4555C25.7122 39.4273 26.1643 39.4131 26.6468 39.4131V38.9131ZM25.2571 38.9566L25.2238 38.4577C24.791 38.4865 24.329 38.5154 23.838 38.5443L23.8673 39.0434L23.8967 39.5426C24.39 39.5135 24.8546 39.4845 25.2903 39.4555L25.2571 38.9566ZM23.8673 39.0434L23.8053 38.5473C23.3668 38.6021 22.8669 38.6303 22.3039 38.6303V39.1303V39.6303C22.899 39.6303 23.4414 39.6006 23.9294 39.5396L23.8673 39.0434ZM38.0234 39.1303L38.3769 38.7767V38.7767L38.0234 39.1303ZM42.4965 34.7006L42.1348 35.0458L42.1428 35.0542L42.1513 35.0622L42.4965 34.7006ZM42.4965 39.1303L42.1513 38.7686L42.1428 38.7766L42.1348 38.785L42.4965 39.1303ZM40.2382 40.0857V39.5857C39.5415 39.5857 38.9277 39.3275 38.3769 38.7767L38.0234 39.1303L37.6698 39.4838C38.393 40.207 39.2557 40.5857 40.2382 40.5857V40.0857ZM38.0234 39.1303L38.3769 38.7767C37.8601 38.26 37.6114 37.6623 37.6114 36.9589H37.1114H36.6114C36.6114 37.9346 36.9706 38.7846 37.6698 39.4838L38.0234 39.1303ZM37.1114 36.9589H37.6114C37.6114 36.1875 37.8672 35.5639 38.3769 35.0541L38.0234 34.7006L37.6698 34.347C36.9636 35.0533 36.6114 35.9352 36.6114 36.9589H37.1114ZM38.0234 34.7006L38.3769 35.0541C38.9277 34.5034 39.5415 34.2451 40.2382 34.2451V33.7451V33.2451C39.2557 33.2451 38.393 33.6239 37.6698 34.347L38.0234 34.7006ZM40.2382 33.7451V34.2451C41.0021 34.2451 41.6232 34.5098 42.1348 35.0458L42.4965 34.7006L42.8582 34.3553C42.1538 33.6174 41.2694 33.2451 40.2382 33.2451V33.7451ZM42.4965 34.7006L42.1513 35.0622C42.6872 35.5739 42.9519 36.195 42.9519 36.9589H43.4519H43.9519C43.9519 35.9277 43.5797 35.0433 42.8417 34.3389L42.4965 34.7006ZM43.4519 36.9589H42.9519C42.9519 37.6545 42.6948 38.2498 42.1513 38.7686L42.4965 39.1303L42.8417 39.492C43.5721 38.7948 43.9519 37.9424 43.9519 36.9589H43.4519ZM42.4965 39.1303L42.1348 38.785C41.6232 39.321 41.0021 39.5857 40.2382 39.5857V40.0857V40.5857C41.2694 40.5857 42.1538 40.2134 42.8582 39.4755L42.4965 39.1303Z" fill="black" mask="url(#path-3-outside-1_109_7)"/>
</g>
<defs>
<clipPath id="clip0_109_7">
<rect width="48" height="48" rx="8" fill="white"/>
</clipPath>
</defs>
</svg>
